<svg width="12" height="10" viewBox="0 0 12 10" fill="none" xmlns="http://www.w3.org/2000/svg">
<g id="delivery" clip-path="url(#clip0_9_2875)">
<path id="Vector" d="M8.24609 8.85929C8.86741 8.85929 9.37109 8.38886 9.37109 7.80855C9.37109 7.22824 8.86741 6.75781 8.24609 6.75781C7.62477 6.75781 7.12109 7.22824 7.12109 7.80855C7.12109 8.38886 7.62477 8.85929 8.24609 8.85929Z" stroke="#282828"/>
<path id="Vector_2" d="M4.3125 8.85929C4.93382 8.85929 5.4375 8.38886 5.4375 7.80855C5.4375 7.22824 4.93382 6.75781 4.3125 6.75781C3.69118 6.75781 3.1875 7.22824 3.1875 7.80855C3.1875 8.38886 3.69118 8.85929 4.3125 8.85929Z" stroke="#282828"/>
<path id="Vector_3" d="M2.0625 5.17759H5.4375V1.5M5.4375 1.5V2.55074H1.5V6.11694C1.5 7.04892 2.25552 7.80444 3.1875 7.80444M5.4375 1.5H7.6875L10.0986 3.30153C10.3512 3.49031 10.5 3.78721 10.5 4.10261V4.65222M10.5 4.65222H8.25V2.55074H8.8125M10.5 4.65222V6.67944C10.5 7.30076 9.99632 7.80444 9.375 7.80444M7.125 7.80444H5.4375" stroke="#282828" stroke-linecap="round" stroke-linejoin="round"/>
</g>
<defs>
<clipPath id="clip0_9_2875">
<rect width="11" height="9" fill="white" transform="translate(0.5 0.5)"/>
</clipPath>
</defs>
</svg>
