<svg width="8" height="9" viewBox="0 0 8 9" fill="none" xmlns="http://www.w3.org/2000/svg">
<g id="sale" clip-path="url(#clip0_9_2840)">
<g id="Clip path group">
<mask id="mask0_9_2840" style="mask-type:luminance" maskUnits="userSpaceOnUse" x="0" y="0" width="8" height="9">
<g id="clip0_436_9049">
<path id="Vector" d="M7.5 0.5H0.5V8.5H7.5V0.5Z" fill="white"/>
</g>
</mask>
<g mask="url(#mask0_9_2840)">
<g id="Group">
<path id="Vector_2" d="M0.5 2.5187V2.10746C0.5 1.81198 0.564319 1.54317 0.692955 1.30106C0.821591 1.05897 1.00561 0.864929 1.24502 0.718957C1.48443 0.572984 1.7685 0.5 2.09724 0.5C2.43313 0.5 2.71899 0.572984 2.95483 0.718957C3.19423 0.864929 3.37826 1.05897 3.50689 1.30106C3.63553 1.54317 3.69985 1.81198 3.69985 2.10746V2.5187C3.69985 2.80708 3.63553 3.07231 3.50689 3.31443C3.38183 3.5565 3.19959 3.75057 2.96019 3.89654C2.72435 4.04252 2.44028 4.11547 2.10796 4.11547C1.77565 4.11547 1.488 4.04252 1.24502 3.89654C1.00561 3.75057 0.821591 3.5565 0.692955 3.31443C0.564319 3.07231 0.5 2.80708 0.5 2.5187ZM1.24502 2.10746V2.5187C1.24502 2.68247 1.2754 2.83734 1.33614 2.98332C1.40046 3.1293 1.49694 3.24855 1.62558 3.34111C1.75421 3.43014 1.91501 3.47462 2.10796 3.47462C2.30092 3.47462 2.45993 3.43014 2.58499 3.34111C2.71006 3.24855 2.80296 3.1293 2.86371 2.98332C2.92445 2.83734 2.95483 2.68247 2.95483 2.5187V2.10746C2.95483 1.94016 2.92267 1.7835 2.85835 1.63753C2.7976 1.48798 2.70291 1.36872 2.57427 1.27969C2.44921 1.18713 2.2902 1.14087 2.09724 1.14087C1.90786 1.14087 1.74885 1.18713 1.62021 1.27969C1.49515 1.36872 1.40046 1.48798 1.33614 1.63753C1.2754 1.7835 1.24502 1.94016 1.24502 2.10746ZM4.30016 6.89787V6.48131C4.30016 6.18936 4.36448 5.92234 4.4931 5.68023C4.62175 5.43815 4.80576 5.24412 5.04517 5.09815C5.28458 4.95217 5.56866 4.87918 5.89739 4.87918C6.23329 4.87918 6.51916 4.95217 6.75499 5.09815C6.9944 5.24412 7.17841 5.43815 7.30706 5.68023C7.43567 5.92234 7.5 6.18936 7.5 6.48131V6.89787C7.5 7.18983 7.43567 7.45684 7.30706 7.69896C7.18199 7.94103 6.99974 8.13506 6.76033 8.28104C6.52451 8.42701 6.24042 8.5 5.90811 8.5C5.5758 8.5 5.28996 8.42701 5.05055 8.28104C4.81114 8.13506 4.62533 7.94103 4.4931 7.69896C4.36448 7.45684 4.30016 7.18983 4.30016 6.89787ZM5.04517 6.48131V6.89787C5.04517 7.06164 5.07554 7.2183 5.13631 7.36781C5.2006 7.51379 5.29709 7.63308 5.42574 7.72564C5.55436 7.81464 5.71517 7.85915 5.90811 7.85915C6.10109 7.85915 6.26007 7.81464 6.38514 7.72564C6.51379 7.63308 6.60848 7.51379 6.66922 7.36781C6.72996 7.22187 6.76033 7.06521 6.76033 6.89787V6.48131C6.76033 6.31397 6.72817 6.15731 6.66388 6.01134C6.6031 5.8654 6.50844 5.74789 6.37979 5.65886C6.25473 5.5663 6.09391 5.52003 5.89739 5.52003C5.70803 5.52003 5.54901 5.5663 5.42036 5.65886C5.2953 5.74789 5.2006 5.8654 5.13631 6.01134C5.07554 6.15731 5.04517 6.31397 5.04517 6.48131ZM6.14397 1.71762L2.33308 7.79506L1.77565 7.44259L5.58652 1.36515L6.14397 1.71762Z" fill="#282828"/>
</g>
</g>
</g>
</g>
<defs>
<clipPath id="clip0_9_2840">
<rect width="7" height="8" fill="white" transform="translate(0.5 0.5)"/>
</clipPath>
</defs>
</svg>
