<svg width="1066" height="555" viewBox="0 0 1066 555" fill="none" xmlns="http://www.w3.org/2000/svg">
<mask id="path-1-outside-1_369_3460" maskUnits="userSpaceOnUse" x="15" y="124.983" width="963" height="424" fill="black">
<rect fill="white" x="15" y="124.983" width="963" height="424"/>
<path d="M315 388.983V452.546H19.9688L16.0312 403.327L186.75 132.483H251.156L181.406 249.202L96.4688 388.983H315ZM268.594 132.483V541.983H187.594V132.483H268.594ZM634.5 301.233V372.108C634.5 402.858 631.219 429.39 624.656 451.702C618.094 473.827 608.625 492.015 596.25 506.265C584.062 520.327 569.531 530.733 552.656 537.483C535.781 544.233 517.031 547.608 496.406 547.608C479.906 547.608 464.531 545.546 450.281 541.421C436.031 537.108 423.188 530.452 411.75 521.452C400.5 512.452 390.75 501.108 382.5 487.421C374.438 473.546 368.25 457.046 363.938 437.921C359.625 418.796 357.469 396.858 357.469 372.108V301.233C357.469 270.483 360.75 244.14 367.312 222.202C374.062 200.077 383.531 181.983 395.719 167.921C408.094 153.858 422.719 143.546 439.594 136.983C456.469 130.233 475.219 126.858 495.844 126.858C512.344 126.858 527.625 129.015 541.688 133.327C555.938 137.452 568.781 143.921 580.219 152.733C591.656 161.546 601.406 172.89 609.469 186.765C617.531 200.452 623.719 216.858 628.031 235.983C632.344 254.921 634.5 276.671 634.5 301.233ZM553.219 382.796V290.265C553.219 275.452 552.375 262.515 550.688 251.452C549.188 240.39 546.844 231.015 543.656 223.327C540.469 215.452 536.531 209.077 531.844 204.202C527.156 199.327 521.812 195.765 515.812 193.515C509.812 191.265 503.156 190.14 495.844 190.14C486.656 190.14 478.5 191.921 471.375 195.483C464.438 199.046 458.531 204.765 453.656 212.64C448.781 220.327 445.031 230.64 442.406 243.577C439.969 256.327 438.75 271.89 438.75 290.265V382.796C438.75 397.608 439.5 410.64 441 421.89C442.688 433.14 445.125 442.796 448.312 450.858C451.688 458.733 455.625 465.202 460.125 470.265C464.812 475.14 470.156 478.702 476.156 480.952C482.344 483.202 489.094 484.327 496.406 484.327C505.406 484.327 513.375 482.546 520.312 478.983C527.438 475.233 533.438 469.421 538.312 461.546C543.375 453.483 547.125 442.983 549.562 430.046C552 417.108 553.219 401.358 553.219 382.796ZM976.5 388.983V452.546H681.469L677.531 403.327L848.25 132.483H912.656L842.906 249.202L757.969 388.983H976.5ZM930.094 132.483V541.983H849.094V132.483H930.094Z"/>
</mask>
<path d="M315 388.983H316V387.983H315V388.983ZM315 452.546V453.546H316V452.546H315ZM19.9688 452.546L18.9719 452.626L19.0456 453.546H19.9688V452.546ZM16.0312 403.327L15.1853 402.794L15.0079 403.075L15.0344 403.407L16.0312 403.327ZM186.75 132.483V131.483H186.198L185.904 131.95L186.75 132.483ZM251.156 132.483L252.015 132.996L252.919 131.483H251.156V132.483ZM181.406 249.202L182.261 249.721L182.265 249.715L181.406 249.202ZM96.4688 388.983L95.6142 388.464L94.691 389.983H96.4688V388.983ZM268.594 132.483H269.594V131.483H268.594V132.483ZM268.594 541.983V542.983H269.594V541.983H268.594ZM187.594 541.983H186.594V542.983H187.594V541.983ZM187.594 132.483V131.483H186.594V132.483H187.594ZM314 388.983V452.546H316V388.983H314ZM315 451.546H19.9688V453.546H315V451.546ZM20.9656 452.466L17.0281 403.247L15.0344 403.407L18.9719 452.626L20.9656 452.466ZM16.8772 403.86L187.596 133.017L185.904 131.95L15.1853 402.794L16.8772 403.86ZM186.75 133.483H251.156V131.483H186.75V133.483ZM250.298 131.97L180.548 248.689L182.265 249.715L252.015 132.996L250.298 131.97ZM180.552 248.683L95.6142 388.464L97.3233 389.503L182.261 249.721L180.552 248.683ZM96.4688 389.983H315V387.983H96.4688V389.983ZM267.594 132.483V541.983H269.594V132.483H267.594ZM268.594 540.983H187.594V542.983H268.594V540.983ZM188.594 541.983V132.483H186.594V541.983H188.594ZM187.594 133.483H268.594V131.483H187.594V133.483ZM624.656 451.702L625.615 451.987L625.616 451.984L624.656 451.702ZM596.25 506.265L595.495 505.609L595.494 505.61L596.25 506.265ZM450.281 541.421L449.992 542.378L450.003 542.381L450.281 541.421ZM411.75 521.452L411.125 522.233L411.132 522.238L411.75 521.452ZM382.5 487.421L381.635 487.923L381.639 487.93L381.644 487.937L382.5 487.421ZM367.312 222.202L366.356 221.91L366.354 221.916L367.312 222.202ZM395.719 167.921L394.968 167.26L394.963 167.266L395.719 167.921ZM439.594 136.983L439.956 137.915L439.965 137.912L439.594 136.983ZM541.688 133.327L541.394 134.283L541.402 134.286L541.409 134.288L541.688 133.327ZM609.469 186.765L608.604 187.267L608.607 187.272L609.469 186.765ZM628.031 235.983L627.056 236.203L627.056 236.205L628.031 235.983ZM550.688 251.452L549.697 251.587L549.698 251.595L549.699 251.603L550.688 251.452ZM543.656 223.327L542.729 223.702L542.733 223.71L543.656 223.327ZM471.375 195.483L470.928 194.589L470.918 194.594L471.375 195.483ZM453.656 212.64L454.501 213.175L454.507 213.166L453.656 212.64ZM442.406 243.577L441.426 243.378L441.424 243.389L442.406 243.577ZM441 421.89L440.009 422.022L440.01 422.03L440.011 422.038L441 421.89ZM448.312 450.858L447.383 451.226L447.388 451.239L447.393 451.252L448.312 450.858ZM460.125 470.265L459.378 470.929L459.391 470.944L459.404 470.958L460.125 470.265ZM476.156 480.952L475.805 481.889L475.815 481.892L476.156 480.952ZM520.312 478.983L520.769 479.873L520.778 479.868L520.312 478.983ZM538.312 461.546L537.466 461.014L537.462 461.02L538.312 461.546ZM633.5 301.233V372.108H635.5V301.233H633.5ZM633.5 372.108C633.5 402.792 630.225 429.223 623.697 451.42L625.616 451.984C632.212 429.556 635.5 402.925 635.5 372.108H633.5ZM623.698 451.418C617.167 473.436 607.758 491.488 595.495 505.609L597.005 506.92C609.492 492.541 619.021 474.219 625.615 451.987L623.698 451.418ZM595.494 505.61C583.409 519.555 569.008 529.866 552.285 536.555L553.028 538.412C570.054 531.601 584.716 521.1 597.006 506.92L595.494 505.61ZM552.285 536.555C535.543 543.252 516.921 546.608 496.406 546.608V548.608C517.141 548.608 536.02 545.215 553.028 538.412L552.285 536.555ZM496.406 546.608C479.99 546.608 464.709 544.556 450.559 540.46L450.003 542.381C464.353 546.535 479.823 548.608 496.406 548.608V546.608ZM450.571 540.464C436.437 536.187 423.706 529.587 412.368 520.666L411.132 522.238C422.669 531.317 435.625 538.03 449.992 542.378L450.571 540.464ZM412.375 520.671C401.227 511.753 391.552 500.502 383.356 486.905L381.644 487.937C389.948 501.715 399.773 513.152 411.125 522.233L412.375 520.671ZM383.365 486.918C375.363 473.148 369.208 456.748 364.913 437.701L362.962 438.141C367.292 457.344 373.512 473.943 381.635 487.923L383.365 486.918ZM364.913 437.701C360.62 418.664 358.469 396.803 358.469 372.108H356.469C356.469 396.914 358.63 418.928 362.962 438.141L364.913 437.701ZM358.469 372.108V301.233H356.469V372.108H358.469ZM358.469 301.233C358.469 270.549 361.744 244.308 368.271 222.489L366.354 221.916C359.756 243.972 356.469 270.417 356.469 301.233H358.469ZM368.269 222.494C374.988 200.471 384.398 182.51 396.474 168.576L394.963 167.266C382.665 181.457 373.137 199.683 366.356 221.91L368.269 222.494ZM396.469 168.582C408.742 154.635 423.236 144.418 439.956 137.915L439.231 136.051C422.202 142.674 407.445 153.082 394.968 167.26L396.469 168.582ZM439.965 137.912C456.707 131.215 475.329 127.858 495.844 127.858V125.858C475.109 125.858 456.23 129.252 439.222 136.055L439.965 137.912ZM495.844 127.858C512.256 127.858 527.438 130.003 541.394 134.283L541.981 132.371C527.812 128.026 512.431 125.858 495.844 125.858V127.858ZM541.409 134.288C555.542 138.379 568.273 144.792 579.608 153.526L580.829 151.941C569.29 143.05 556.333 136.525 541.966 132.367L541.409 134.288ZM579.608 153.526C590.932 162.251 600.6 173.492 608.604 187.267L610.333 186.262C602.213 172.288 592.38 160.841 580.829 151.941L579.608 153.526ZM608.607 187.272C616.606 200.852 622.761 217.157 627.056 236.203L629.007 235.763C624.677 216.56 618.456 200.052 610.33 186.257L608.607 187.272ZM627.056 236.205C631.348 255.054 633.5 276.727 633.5 301.233H635.5C635.5 276.615 633.339 254.788 629.006 235.761L627.056 236.205ZM554.219 382.796V290.265H552.219V382.796H554.219ZM554.219 290.265C554.219 275.417 553.373 262.427 551.676 251.301L549.699 251.603C551.377 262.603 552.219 275.488 552.219 290.265H554.219ZM551.678 251.318C550.171 240.197 547.81 230.733 544.58 222.944L542.733 223.71C545.878 231.296 548.204 240.582 549.697 251.587L551.678 251.318ZM544.583 222.952C541.36 214.988 537.36 208.496 532.565 203.509L531.123 204.895C535.703 209.658 539.578 215.916 542.729 223.702L544.583 222.952ZM532.565 203.509C527.779 198.532 522.311 194.884 516.164 192.578L515.461 194.451C521.314 196.646 526.533 200.122 531.123 204.895L532.565 203.509ZM516.164 192.578C510.037 190.281 503.259 189.14 495.844 189.14V191.14C503.053 191.14 509.588 192.249 515.461 194.451L516.164 192.578ZM495.844 189.14C486.525 189.14 478.212 190.947 470.928 194.589L471.822 196.378C478.788 192.895 486.788 191.14 495.844 191.14V189.14ZM470.918 194.594C463.791 198.254 457.759 204.113 452.806 212.113L454.507 213.166C459.304 205.416 465.084 199.838 471.832 196.373L470.918 194.594ZM452.812 212.104C447.849 219.93 444.066 230.37 441.426 243.378L443.386 243.776C445.997 230.909 449.713 220.724 454.501 213.175L452.812 212.104ZM441.424 243.389C438.971 256.221 437.75 271.85 437.75 290.265H439.75C439.75 271.929 440.967 256.433 443.388 243.765L441.424 243.389ZM437.75 290.265V382.796H439.75V290.265H437.75ZM437.75 382.796C437.75 397.64 438.501 410.717 440.009 422.022L441.991 421.757C440.499 410.562 439.75 397.577 439.75 382.796H437.75ZM440.011 422.038C441.707 433.341 444.16 443.075 447.383 451.226L449.242 450.491C446.09 442.517 443.668 432.938 441.989 421.741L440.011 422.038ZM447.393 451.252C450.8 459.201 454.79 465.768 459.378 470.929L460.872 469.6C456.46 464.636 452.575 458.266 449.232 450.464L447.393 451.252ZM459.404 470.958C464.189 475.934 469.658 479.583 475.805 481.888L476.507 480.016C470.655 477.821 465.436 474.345 460.846 469.572L459.404 470.958ZM475.815 481.892C482.123 484.186 488.99 485.327 496.406 485.327V483.327C489.197 483.327 482.565 482.218 476.498 480.012L475.815 481.892ZM496.406 485.327C505.541 485.327 513.67 483.518 520.769 479.873L519.856 478.094C513.08 481.573 505.272 483.327 496.406 483.327V485.327ZM520.778 479.868C528.084 476.023 534.208 470.076 539.163 462.072L537.462 461.02C532.667 468.766 526.791 474.443 519.847 478.098L520.778 479.868ZM539.159 462.078C544.309 453.877 548.093 443.248 550.545 430.231L548.58 429.861C546.157 442.719 542.441 453.09 537.466 461.014L539.159 462.078ZM550.545 430.231C552.998 417.213 554.219 401.397 554.219 382.796H552.219C552.219 401.319 551.002 417.003 548.58 429.861L550.545 430.231ZM976.5 388.983H977.5V387.983H976.5V388.983ZM976.5 452.546V453.546H977.5V452.546H976.5ZM681.469 452.546L680.472 452.626L680.546 453.546H681.469V452.546ZM677.531 403.327L676.685 402.794L676.508 403.075L676.534 403.407L677.531 403.327ZM848.25 132.483V131.483H847.698L847.404 131.95L848.25 132.483ZM912.656 132.483L913.515 132.996L914.419 131.483H912.656V132.483ZM842.906 249.202L843.761 249.721L843.765 249.715L842.906 249.202ZM757.969 388.983L757.114 388.464L756.191 389.983H757.969V388.983ZM930.094 132.483H931.094V131.483H930.094V132.483ZM930.094 541.983V542.983H931.094V541.983H930.094ZM849.094 541.983H848.094V542.983H849.094V541.983ZM849.094 132.483V131.483H848.094V132.483H849.094ZM975.5 388.983V452.546H977.5V388.983H975.5ZM976.5 451.546H681.469V453.546H976.5V451.546ZM682.466 452.466L678.528 403.247L676.534 403.407L680.472 452.626L682.466 452.466ZM678.377 403.86L849.096 133.017L847.404 131.95L676.685 402.794L678.377 403.86ZM848.25 133.483H912.656V131.483H848.25V133.483ZM911.798 131.97L842.048 248.689L843.765 249.715L913.515 132.996L911.798 131.97ZM842.052 248.683L757.114 388.464L758.823 389.503L843.761 249.721L842.052 248.683ZM757.969 389.983H976.5V387.983H757.969V389.983ZM929.094 132.483V541.983H931.094V132.483H929.094ZM930.094 540.983H849.094V542.983H930.094V540.983ZM850.094 541.983V132.483H848.094V541.983H850.094ZM849.094 133.483H930.094V131.483H849.094V133.483Z" fill="#1A1A1A" mask="url(#path-1-outside-1_369_3460)"/>
<path d="M369.75 391.75V457.078H66.5234L62.4766 406.492L237.938 128.125H304.133L232.445 248.086L145.148 391.75H369.75ZM322.055 128.125V549H238.805V128.125H322.055ZM698.125 301.562V374.406C698.125 406.01 694.753 433.279 688.008 456.211C681.263 478.951 671.531 497.643 658.812 512.289C646.286 526.742 631.352 537.438 614.008 544.375C596.664 551.312 577.393 554.781 556.195 554.781C539.237 554.781 523.435 552.661 508.789 548.422C494.143 543.99 480.943 537.148 469.188 527.898C457.625 518.648 447.604 506.99 439.125 492.922C430.839 478.661 424.479 461.703 420.047 442.047C415.615 422.391 413.398 399.844 413.398 374.406V301.562C413.398 269.958 416.771 242.883 423.516 220.336C430.453 197.596 440.185 179 452.711 164.547C465.43 150.094 480.461 139.495 497.805 132.75C515.148 125.812 534.419 122.344 555.617 122.344C572.576 122.344 588.281 124.56 602.734 128.992C617.38 133.232 630.581 139.88 642.336 148.938C654.091 157.995 664.112 169.654 672.398 183.914C680.685 197.982 687.044 214.844 691.477 234.5C695.909 253.964 698.125 276.318 698.125 301.562ZM614.586 385.391V290.289C614.586 275.065 613.719 261.768 611.984 250.398C610.443 239.029 608.034 229.393 604.758 221.492C601.482 213.398 597.435 206.846 592.617 201.836C587.799 196.826 582.307 193.164 576.141 190.852C569.974 188.539 563.133 187.383 555.617 187.383C546.174 187.383 537.792 189.214 530.469 192.875C523.339 196.536 517.268 202.414 512.258 210.508C507.247 218.409 503.393 229.008 500.695 242.305C498.19 255.409 496.938 271.404 496.938 290.289V385.391C496.938 400.615 497.708 414.008 499.25 425.57C500.984 437.133 503.49 447.057 506.766 455.344C510.234 463.438 514.281 470.086 518.906 475.289C523.724 480.299 529.216 483.961 535.383 486.273C541.742 488.586 548.68 489.742 556.195 489.742C565.445 489.742 573.635 487.911 580.766 484.25C588.089 480.396 594.255 474.422 599.266 466.328C604.469 458.042 608.323 447.25 610.828 433.953C613.333 420.656 614.586 404.469 614.586 385.391ZM1049.62 391.75V457.078H746.398L742.352 406.492L917.812 128.125H984.008L912.32 248.086L825.023 391.75H1049.62ZM1001.93 128.125V549H918.68V128.125H1001.93Z" fill="#A0A0A0"/>
</svg>
