<svg width="666" height="593" viewBox="0 0 666 593" fill="none" xmlns="http://www.w3.org/2000/svg">
<path d="M476.189 177.894V400.328C476.189 438.776 444.907 470.058 406.462 470.058H69.7264C41.1402 470.058 17.8894 493.309 17.8894 521.895V674.319H0V521.895C0 483.446 31.2775 452.169 69.7264 452.169H406.462C435.04 452.169 458.295 428.91 458.295 400.328V177.894H476.189Z" fill="#FF0000"/>
<path d="M496.313 233.041V268.688C496.313 277.2 489.411 284.098 480.903 284.098H453.577C448.88 284.098 444.675 281.995 441.853 278.685V278.681C439.558 275.993 438.171 272.503 438.171 268.688V233.041L496.313 233.041Z" fill="#DC0000"/>
<path d="M526.688 149.95V221.154C526.688 232.149 517.773 241.064 506.774 241.064H427.711C416.715 241.064 407.8 232.149 407.8 221.154V149.95H526.688Z" fill="#DC0000"/>
<path d="M400.721 134.272H533.766C535.21 134.272 536.38 135.443 536.38 136.886V147.335C536.38 148.779 535.21 149.949 533.766 149.949H400.721C399.277 149.949 398.107 148.779 398.107 147.335V136.886C398.107 135.443 399.277 134.272 400.721 134.272Z" fill="#FF0000"/>
<path d="M449.402 134.272H429.14V85.8135C429.14 80.2184 433.676 75.6826 439.271 75.6826C444.866 75.6826 449.402 80.2184 449.402 85.8135V134.272Z" fill="#282828"/>
<path d="M505.346 134.272H485.084V85.8135C485.084 80.2184 489.62 75.6826 495.215 75.6826C500.81 75.6826 505.346 80.2184 505.346 85.8135V134.272Z" fill="#282828"/>
<path d="M526.686 149.947V221.151C526.686 232.146 517.771 241.061 506.771 241.061H427.708C416.713 241.061 407.798 232.146 407.798 221.151C493.168 215.22 501.01 149.947 501.01 149.947H526.686Z" fill="#FF0000"/>
<path d="M526.686 149.947H407.798V155.689H526.686V149.947Z" fill="#DC0000"/>
<path d="M526.686 180.044V221.152C526.686 232.147 517.771 241.063 506.771 241.063H451.268C507.317 241.062 526.686 180.044 526.686 180.044Z" fill="#DC0000"/>
<path d="M496.311 241.061H438.171V244.782H496.311V241.061Z" fill="#282828"/>
<path d="M449.4 127.178H429.138V134.272H449.4V127.178Z" fill="#282828"/>
<path d="M505.344 127.178H485.082V134.272H505.344V127.178Z" fill="#282828"/>
<path d="M496.313 241.061V268.687C496.313 277.199 489.41 284.097 480.902 284.097H453.576C448.879 284.097 444.674 281.994 441.852 278.684V278.68C484.445 283.905 490.949 241.061 490.949 241.061H496.313Z" fill="#282828"/>
<path d="M623.184 96.6748H659.997C662.243 96.6748 664.064 98.4959 664.064 100.742C664.064 102.989 662.243 104.81 659.997 104.81H623.184C620.938 104.81 619.116 102.989 619.116 100.742C619.116 98.4959 620.938 96.6748 623.184 96.6748Z" stroke="#282828" stroke-width="2"/>
<path d="M576.468 143.399C578.714 143.399 580.535 145.22 580.535 147.467V184.279C580.535 186.526 578.714 188.347 576.468 188.347C574.221 188.347 572.4 186.526 572.4 184.279V147.467C572.4 145.22 574.221 143.399 576.468 143.399Z" stroke="#282828" stroke-width="2"/>
<path d="M613.122 131.647C612.328 130.853 611.289 130.456 610.246 130.456C609.204 130.456 608.164 130.853 607.37 131.647C607.37 131.647 607.37 131.647 607.37 131.647M613.122 131.647L607.37 131.647M613.122 131.647L638.41 156.935C639.999 158.524 639.999 161.099 638.41 162.688C636.822 164.276 634.246 164.276 632.658 162.688L607.37 137.4C605.781 135.811 605.781 133.236 607.37 131.647M613.122 131.647L607.37 131.647" stroke="#282828" stroke-width="2"/>
<path d="M328.88 92.6719L292.067 92.6719C289.821 92.6719 288 90.8508 288 88.6043C288 86.3577 289.821 84.5367 292.067 84.5367L328.88 84.5367C331.126 84.5367 332.947 86.3577 332.947 88.6043C332.947 90.8508 331.126 92.6719 328.88 92.6719Z" fill="white" stroke="#282828" stroke-width="2"/>
<path d="M375.596 45.9473C373.349 45.9473 371.528 44.1262 371.528 41.8797L371.528 5.06755C371.528 2.821 373.349 0.999996 375.596 0.999996C377.843 0.999996 379.664 2.821 379.664 5.06755L379.664 41.8797C379.664 44.1262 377.843 45.9473 375.596 45.9473Z" fill="white" stroke="#282828" stroke-width="2"/>
<path d="M338.942 57.6994C339.736 58.4937 340.775 58.8906 341.818 58.8906C342.86 58.8906 343.899 58.4937 344.694 57.6994C344.694 57.6994 344.694 57.6993 344.694 57.6993M338.942 57.6994L344.694 57.6993M338.942 57.6994L313.653 32.4112C312.065 30.8228 312.065 28.2474 313.653 26.6589C315.242 25.0704 317.817 25.0704 319.406 26.6589L344.694 51.9471C346.282 53.5355 346.282 56.1108 344.694 57.6993M338.942 57.6994L344.694 57.6993" fill="white" stroke="#282828" stroke-width="2"/>
</svg>
