<svg width="726" height="515" viewBox="0 0 726 515" fill="none" xmlns="http://www.w3.org/2000/svg">
<path d="M852.927 0V19.7913H258.727C227.102 19.7913 201.38 45.5138 201.38 77.1389V337.198H181.584V77.1389C181.584 34.6026 216.191 0 258.727 0H852.927Z" fill="#FF0000"/>
<path d="M223.645 314.928V275.492C223.645 266.074 216.009 258.443 206.597 258.443H176.366C171.169 258.443 166.517 260.769 163.395 264.431V264.436C160.856 267.41 159.322 271.27 159.322 275.491V314.927L223.645 314.928Z" fill="#FF0000"/>
<path d="M257.251 406.855V328.081C257.251 315.917 247.388 306.055 235.22 306.055H147.751C135.587 306.055 125.724 315.917 125.724 328.081V406.855H257.251Z" fill="#FF0000"/>
<path d="M117.892 424.199H265.08C266.677 424.199 267.972 422.904 267.972 421.307V409.747C267.972 408.15 266.677 406.855 265.08 406.855H117.892C116.295 406.855 115 408.15 115 409.747V421.307C115 422.904 116.295 424.199 117.892 424.199Z" fill="#DC0000"/>
<path d="M257.248 406.855V328.081C257.248 315.917 247.385 306.055 235.216 306.055H147.748C135.584 306.055 125.721 315.917 125.721 328.081C220.167 334.643 228.842 406.855 228.842 406.855H257.248Z" fill="#DC0000"/>
<path d="M257.248 400.503H125.721V406.855H257.248V400.503Z" fill="#FF0000"/>
<path d="M257.248 373.56V328.081C257.248 315.917 247.385 306.055 235.216 306.055H173.813C235.82 306.055 257.248 373.56 257.248 373.56Z" fill="#FF0000"/>
<path d="M223.643 301.938H159.322V306.055H223.643V301.938Z" fill="#282828"/>
<path d="M223.645 306.055V275.492C223.645 266.074 216.009 258.443 206.596 258.443H176.365C171.168 258.443 166.517 260.769 163.394 264.431V264.436C210.515 258.656 217.711 306.055 217.711 306.055H223.645Z" fill="#282828"/>
<path d="M100.351 474.006L90.8238 509.564C90.2423 511.734 88.012 513.022 85.842 512.44C83.672 511.859 82.3843 509.629 82.9658 507.459L92.4934 471.901C93.0749 469.731 95.3052 468.443 97.4752 469.025C99.6452 469.606 100.933 471.836 100.351 474.006Z" fill="white" stroke="#282828" stroke-width="2"/>
<path d="M67.3129 416.786C66.7314 418.956 64.5011 420.244 62.3311 419.663L26.7729 410.135C24.6029 409.553 23.3152 407.323 23.8967 405.153C24.4781 402.983 26.7085 401.695 28.8785 402.277L64.4366 411.804C66.6067 412.386 67.8943 414.616 67.3129 416.786Z" fill="white" stroke="#282828" stroke-width="2"/>
<path d="M38.2049 473.118L38.5833 473.773L38.2049 473.118C36.2594 474.241 33.7717 473.575 32.6485 471.629C31.5253 469.684 32.1919 467.196 34.1373 466.073L65.1089 448.192C67.0543 447.068 69.542 447.735 70.6652 449.68C71.2268 450.653 71.3413 451.76 71.0714 452.767C70.8016 453.774 70.1492 454.675 69.1764 455.237L38.2049 473.118Z" fill="white" stroke="#282828" stroke-width="2"/>
<path d="M343.787 411.523L380.599 411.523C382.846 411.523 384.667 413.344 384.667 415.591C384.667 417.837 382.846 419.658 380.599 419.658L343.787 419.658C341.54 419.658 339.719 417.837 339.719 415.591C339.719 413.344 341.54 411.523 343.787 411.523Z" stroke="#282828" stroke-width="2"/>
<path d="M297.067 458.246C299.314 458.246 301.135 460.067 301.135 462.313L301.135 499.126C301.135 501.372 299.314 503.193 297.067 503.193C294.821 503.193 293 501.372 293 499.126L293 462.313C293 460.067 294.821 458.246 297.067 458.246Z" stroke="#282828" stroke-width="2"/>
<path d="M359.014 471.782L359.549 471.247L359.014 471.782C360.602 473.37 360.602 475.946 359.014 477.534C357.425 479.123 354.85 479.123 353.261 477.534L327.973 452.246C326.385 450.658 326.385 448.082 327.973 446.494C328.767 445.7 329.807 445.302 330.85 445.302C331.892 445.302 332.931 445.699 333.725 446.494L359.014 471.782Z" stroke="#282828" stroke-width="2"/>
</svg>
