<svg width="14" height="12" viewBox="0 0 14 12" fill="none" xmlns="http://www.w3.org/2000/svg">
<g id="basket" clip-path="url(#clip0_9_2854)">
<path id="Vector" d="M3.01699 2.39759L12.4904 3.20579L12.2198 5.88632L4.47664 7.10474M1.5 1.5L2.85302 1.74368L4.74724 9.2979H12.3241" stroke="#FF0000" stroke-linecap="round"/>
<path id="Vector_2" d="M4.57617 11.5057C5.00117 11.5057 5.3457 11.2071 5.3457 10.8388C5.3457 10.4705 5.00117 10.1719 4.57617 10.1719C4.15117 10.1719 3.80664 10.4705 3.80664 10.8388C3.80664 11.2071 4.15117 11.5057 4.57617 11.5057Z" fill="#FF0000"/>
<g id="Mask group">
<mask id="mask0_9_2854" style="mask-type:luminance" maskUnits="userSpaceOnUse" x="3" y="10" width="3" height="2">
<g id="Group">
<path id="Vector_3" d="M4.57617 11.5057C5.00117 11.5057 5.3457 11.2071 5.3457 10.8388C5.3457 10.4705 5.00117 10.1719 4.57617 10.1719C4.15117 10.1719 3.80664 10.4705 3.80664 10.8388C3.80664 11.2071 4.15117 11.5057 4.57617 11.5057Z" fill="white"/>
</g>
</mask>
<g mask="url(#mask0_9_2854)">
<path id="Vector_4" d="M4.3457 10.8388C4.3457 10.6964 4.41471 10.5986 4.46538 10.5547C4.514 10.5126 4.55623 10.5057 4.57617 10.5057V12.5057C5.41432 12.5057 6.3457 11.889 6.3457 10.8388H4.3457ZM4.57617 10.5057C4.59611 10.5057 4.63834 10.5126 4.68696 10.5547C4.73763 10.5986 4.80664 10.6964 4.80664 10.8388H2.80664C2.80664 11.889 3.73802 12.5057 4.57617 12.5057V10.5057ZM4.80664 10.8388C4.80664 10.9812 4.73763 11.079 4.68696 11.1229C4.63834 11.165 4.59611 11.1719 4.57617 11.1719V9.17188C3.73802 9.17188 2.80664 9.78863 2.80664 10.8388H4.80664ZM4.57617 11.1719C4.55623 11.1719 4.514 11.165 4.46538 11.1229C4.41471 11.079 4.3457 10.9812 4.3457 10.8388H6.3457C6.3457 9.78863 5.41432 9.17188 4.57617 9.17188V11.1719Z" fill="#FF0000"/>
</g>
</g>
<path id="Vector_5" d="M10.2617 11.5057C10.6867 11.5057 11.0312 11.2071 11.0312 10.8388C11.0312 10.4705 10.6867 10.1719 10.2617 10.1719C9.83672 10.1719 9.49219 10.4705 9.49219 10.8388C9.49219 11.2071 9.83672 11.5057 10.2617 11.5057Z" fill="#FF0000"/>
<g id="Mask group_2">
<mask id="mask1_9_2854" style="mask-type:luminance" maskUnits="userSpaceOnUse" x="9" y="10" width="3" height="2">
<g id="Group_2">
<path id="Vector_6" d="M10.2617 11.5057C10.6867 11.5057 11.0312 11.2071 11.0312 10.8388C11.0312 10.4705 10.6867 10.1719 10.2617 10.1719C9.83672 10.1719 9.49219 10.4705 9.49219 10.8388C9.49219 11.2071 9.83672 11.5057 10.2617 11.5057Z" fill="white"/>
</g>
</mask>
<g mask="url(#mask1_9_2854)">
<path id="Vector_7" d="M10.0312 10.8388C10.0312 10.6964 10.1003 10.5986 10.1509 10.5547C10.1995 10.5126 10.2418 10.5057 10.2617 10.5057V12.5057C11.0999 12.5057 12.0312 11.889 12.0312 10.8388H10.0312ZM10.2617 10.5057C10.2816 10.5057 10.3239 10.5126 10.3725 10.5547C10.4232 10.5986 10.4922 10.6964 10.4922 10.8388H8.49219C8.49219 11.889 9.42357 12.5057 10.2617 12.5057V10.5057ZM10.4922 10.8388C10.4922 10.9812 10.4232 11.079 10.3725 11.1229C10.3239 11.165 10.2816 11.1719 10.2617 11.1719V9.17188C9.42357 9.17188 8.49219 9.78863 8.49219 10.8388H10.4922ZM10.2617 11.1719C10.2418 11.1719 10.1995 11.165 10.1509 11.1229C10.1003 11.079 10.0312 10.9812 10.0312 10.8388H12.0312C12.0312 9.78863 11.0999 9.17188 10.2617 9.17188V11.1719Z" fill="#FF0000"/>
</g>
</g>
</g>
<defs>
<clipPath id="clip0_9_2854">
<rect width="13" height="11" fill="white" transform="translate(0.5 0.5)"/>
</clipPath>
</defs>
</svg>
