<svg width="10" height="11" viewBox="0 0 10 11" fill="none" xmlns="http://www.w3.org/2000/svg">
<g id="box" clip-path="url(#clip0_9_2866)">
<path id="Vector" d="M5 9.90596V6.17M5 9.90596L2.39006 8.16478C1.95435 7.8741 1.7365 7.72876 1.61825 7.50773C1.5 7.28669 1.5 7.0248 1.5 6.50104V3.83502M5 9.90596L6.75 8.73847L7.60994 8.16478C8.04565 7.8741 8.2635 7.72876 8.38175 7.50773C8.5 7.28669 8.5 7.02481 8.5 6.50104V3.83502M5 6.17L1.5 3.83502M5 6.17L8.5 3.83502M1.5 3.83502L3.89006 2.24052C4.42805 1.88161 4.69705 1.70215 5 1.70215C5.30295 1.70215 5.57195 1.88161 6.10994 2.24052L8.5 3.83502" stroke="#FF0000" stroke-linejoin="round"/>
<path id="Vector_2" d="M6.24819 6.86706C6.24819 7.14321 6.47204 7.36706 6.74819 7.36706C7.02433 7.36706 7.24819 7.14321 7.24819 6.86706H6.24819ZM2.9707 3.08004L5.58064 4.82123L6.13561 3.98936L3.52567 2.24817L2.9707 3.08004ZM7.24819 6.86706V6.06903H6.24819V6.86706H7.24819ZM5.58064 4.82123C5.8061 4.97163 5.94672 5.06605 6.04819 5.14832C6.14162 5.22407 6.17219 5.26665 6.18906 5.2982L7.07081 4.82648C6.96944 4.63699 6.83196 4.49639 6.67797 4.37155C6.53202 4.25321 6.34587 4.12962 6.13561 3.98936L5.58064 4.82123ZM7.24819 6.06903C7.24819 5.81628 7.24869 5.59284 7.23125 5.40576C7.21285 5.20837 7.17219 5.01597 7.07081 4.82648L6.18906 5.2982C6.20594 5.32975 6.2244 5.37881 6.23556 5.49857C6.24769 5.62863 6.24819 5.79801 6.24819 6.06903H7.24819Z" fill="#FF0000"/>
</g>
<defs>
<clipPath id="clip0_9_2866">
<rect width="9" height="10" fill="white" transform="translate(0.5 0.5)"/>
</clipPath>
</defs>
</svg>
