<svg width="10" height="11" viewBox="0 0 10 11" fill="none" xmlns="http://www.w3.org/2000/svg">
<g id="complect">
<path id="Vector" d="M2.388 3.37579H4.68569M7.77502 4.97015V5.73217L3.24243 6.55512M1.5 2.76953L2.29202 2.93412L3.40084 8.03644H7.83613" stroke="#FF0000" stroke-linecap="round"/>
<path id="Vector_2" d="M3.30397 9.53373C3.55276 9.53373 3.75443 9.33205 3.75443 9.08327C3.75443 8.83449 3.55276 8.63281 3.30397 8.63281C3.05519 8.63281 2.85352 8.83449 2.85352 9.08327C2.85352 9.33205 3.05519 9.53373 3.30397 9.53373Z" fill="#FF0000"/>
<path id="Vector_3" d="M6.63015 9.53373C6.87893 9.53373 7.08061 9.33205 7.08061 9.08327C7.08061 8.83449 6.87893 8.63281 6.63015 8.63281C6.38136 8.63281 6.17969 8.83449 6.17969 9.08327C6.17969 9.33205 6.38136 9.53373 6.63015 9.53373Z" fill="#FF0000"/>
<path id="Vector_4" d="M6.97461 2.73847L7.52938 3.02453L8.50023 2.26172" stroke="#FF0000" stroke-linecap="round"/>
<path id="Vector_5" d="M8.49959 3.40702C8.49959 3.80548 8.37478 4.19394 8.14269 4.51782C7.91059 4.84171 7.58288 5.08476 7.20556 5.21284C6.82825 5.34092 6.42029 5.3476 6.03899 5.23193C5.65769 5.11626 5.32219 4.88407 5.07963 4.56795C4.83706 4.25183 4.69961 3.86767 4.68657 3.46942C4.67353 3.07117 4.78557 2.67885 5.00694 2.34754C5.22831 2.01623 5.5479 1.76259 5.92082 1.62223C6.29374 1.48187 6.70126 1.46185 7.08614 1.56498" stroke="#FF0000" stroke-linecap="round"/>
</g>
</svg>
