<svg width="40" height="11" viewBox="0 0 40 11" fill="none" xmlns="http://www.w3.org/2000/svg">
<rect x="0.3" y="0.3" width="39.4" height="10.4" rx="5.2" fill="#515151" fill-opacity="0.11"/>
<rect x="0.3" y="0.3" width="39.4" height="10.4" rx="5.2" stroke="#FF0000" stroke-width="0.6"/>
<path d="M9.58691 4.7666V9H8.67871V3.7168H9.53809L9.58691 4.7666ZM9.40137 6.1582L8.98145 6.14355C8.9847 5.78223 9.0319 5.44857 9.12305 5.14258C9.21419 4.83333 9.34928 4.56478 9.52832 4.33691C9.70736 4.10905 9.93034 3.93327 10.1973 3.80957C10.4642 3.68262 10.7734 3.61914 11.125 3.61914C11.3724 3.61914 11.6003 3.65495 11.8086 3.72656C12.0169 3.79492 12.1976 3.90397 12.3506 4.05371C12.5036 4.20345 12.6224 4.39551 12.707 4.62988C12.7917 4.86426 12.834 5.14746 12.834 5.47949V9H11.9307V5.52344C11.9307 5.24674 11.8835 5.02539 11.7891 4.85938C11.6979 4.69336 11.5677 4.57292 11.3984 4.49805C11.2292 4.41992 11.0306 4.38086 10.8027 4.38086C10.5358 4.38086 10.3128 4.42806 10.1338 4.52246C9.95475 4.61686 9.81152 4.74707 9.7041 4.91309C9.59668 5.0791 9.51855 5.26953 9.46973 5.48438C9.42415 5.69596 9.40137 5.92057 9.40137 6.1582ZM12.8242 5.66016L12.2188 5.8457C12.222 5.55599 12.2692 5.27767 12.3604 5.01074C12.4548 4.74382 12.5898 4.50618 12.7656 4.29785C12.9447 4.08952 13.1644 3.92513 13.4248 3.80469C13.6852 3.68099 13.9831 3.61914 14.3184 3.61914C14.6016 3.61914 14.8522 3.65658 15.0703 3.73145C15.2917 3.80632 15.4772 3.92188 15.627 4.07812C15.7799 4.23112 15.8955 4.42806 15.9736 4.66895C16.0518 4.90983 16.0908 5.19629 16.0908 5.52832V9H15.1826V5.51855C15.1826 5.22233 15.1354 4.99284 15.041 4.83008C14.9499 4.66406 14.8197 4.5485 14.6504 4.4834C14.4844 4.41504 14.2858 4.38086 14.0547 4.38086C13.8561 4.38086 13.6803 4.41504 13.5273 4.4834C13.3743 4.55176 13.2458 4.64616 13.1416 4.7666C13.0374 4.88379 12.9577 5.01888 12.9023 5.17188C12.8503 5.32487 12.8242 5.48763 12.8242 5.66016ZM18.4395 3.7168V9H17.5312V3.7168H18.4395ZM17.4629 2.31543C17.4629 2.16895 17.5068 2.04525 17.5947 1.94434C17.6859 1.84342 17.8193 1.79297 17.9951 1.79297C18.1676 1.79297 18.2995 1.84342 18.3906 1.94434C18.485 2.04525 18.5322 2.16895 18.5322 2.31543C18.5322 2.4554 18.485 2.57585 18.3906 2.67676C18.2995 2.77441 18.1676 2.82324 17.9951 2.82324C17.8193 2.82324 17.6859 2.77441 17.5947 2.67676C17.5068 2.57585 17.4629 2.4554 17.4629 2.31543ZM20.793 4.84473V9H19.8896V3.7168H20.7441L20.793 4.84473ZM20.5781 6.1582L20.2021 6.14355C20.2054 5.78223 20.2591 5.44857 20.3633 5.14258C20.4674 4.83333 20.6139 4.56478 20.8027 4.33691C20.9915 4.10905 21.2161 3.93327 21.4766 3.80957C21.7402 3.68262 22.0316 3.61914 22.3506 3.61914C22.611 3.61914 22.8454 3.65495 23.0537 3.72656C23.262 3.79492 23.4395 3.9056 23.5859 4.05859C23.7357 4.21159 23.8496 4.41016 23.9277 4.6543C24.0059 4.89518 24.0449 5.18978 24.0449 5.53809V9H23.1367V5.52832C23.1367 5.25163 23.096 5.03027 23.0146 4.86426C22.9333 4.69499 22.8145 4.57292 22.6582 4.49805C22.502 4.41992 22.3099 4.38086 22.082 4.38086C21.8574 4.38086 21.6523 4.42806 21.4668 4.52246C21.2845 4.61686 21.1266 4.74707 20.9932 4.91309C20.863 5.0791 20.7604 5.26953 20.6855 5.48438C20.6139 5.69596 20.5781 5.92057 20.5781 6.1582ZM27.2969 5.60645V6.34863H24.9141V5.60645H27.2969ZM29.0889 1.5V9H28.1807V1.5H29.0889ZM32.3164 3.7168L30.0117 6.18262L28.7227 7.52051L28.6494 6.55859L29.5723 5.45508L31.2129 3.7168H32.3164ZM31.4912 9L29.6064 6.48047L30.0752 5.6748L32.5557 9H31.4912Z" fill="#FF0000"/>
</svg>
