<svg width="13" height="11" viewBox="0 0 13 11" fill="none" xmlns="http://www.w3.org/2000/svg">
<path d="M2.51699 1.89759L11.9904 2.70579L11.7198 5.38632L3.97664 6.60474M1 1L2.35302 1.24368L4.24724 8.7979H11.8241" stroke="#FF0000" stroke-linecap="round"/>
<mask id="path-2-inside-1_436_9239" fill="white">
<ellipse cx="4.07617" cy="10.3388" rx="0.769529" ry="0.666925"/>
</mask>
<ellipse cx="4.07617" cy="10.3388" rx="0.769529" ry="0.666925" fill="#FF0000"/>
<path d="M3.8457 10.3388C3.8457 10.1964 3.91471 10.0986 3.96538 10.0547C4.014 10.0126 4.05623 10.0057 4.07617 10.0057V12.0057C4.91432 12.0057 5.8457 11.389 5.8457 10.3388H3.8457ZM4.07617 10.0057C4.09611 10.0057 4.13834 10.0126 4.18696 10.0547C4.23763 10.0986 4.30664 10.1964 4.30664 10.3388H2.30664C2.30664 11.389 3.23802 12.0057 4.07617 12.0057V10.0057ZM4.30664 10.3388C4.30664 10.4812 4.23763 10.579 4.18696 10.6229C4.13834 10.665 4.09611 10.6719 4.07617 10.6719V8.67188C3.23802 8.67188 2.30664 9.28863 2.30664 10.3388H4.30664ZM4.07617 10.6719C4.05623 10.6719 4.014 10.665 3.96538 10.6229C3.91471 10.579 3.8457 10.4812 3.8457 10.3388H5.8457C5.8457 9.28863 4.91432 8.67188 4.07617 8.67188V10.6719Z" fill="#FF0000" mask="url(#path-2-inside-1_436_9239)"/>
<mask id="path-4-inside-2_436_9239" fill="white">
<ellipse cx="9.76172" cy="10.3388" rx="0.769529" ry="0.666925"/>
</mask>
<ellipse cx="9.76172" cy="10.3388" rx="0.769529" ry="0.666925" fill="#FF0000"/>
<path d="M9.53125 10.3388C9.53125 10.1964 9.60026 10.0986 9.65093 10.0547C9.69955 10.0126 9.74178 10.0057 9.76172 10.0057V12.0057C10.5999 12.0057 11.5312 11.389 11.5312 10.3388H9.53125ZM9.76172 10.0057C9.78165 10.0057 9.82388 10.0126 9.87251 10.0547C9.92317 10.0986 9.99219 10.1964 9.99219 10.3388H7.99219C7.99219 11.389 8.92357 12.0057 9.76172 12.0057V10.0057ZM9.99219 10.3388C9.99219 10.4812 9.92317 10.579 9.87251 10.6229C9.82388 10.665 9.78165 10.6719 9.76172 10.6719V8.67188C8.92357 8.67188 7.99219 9.28863 7.99219 10.3388H9.99219ZM9.76172 10.6719C9.74178 10.6719 9.69955 10.665 9.65093 10.6229C9.60026 10.579 9.53125 10.4812 9.53125 10.3388H11.5312C11.5312 9.28863 10.5999 8.67188 9.76172 8.67188V10.6719Z" fill="#FF0000" mask="url(#path-4-inside-2_436_9239)"/>
</svg>
