<svg width="9" height="10" viewBox="0 0 9 10" fill="none" xmlns="http://www.w3.org/2000/svg">
<path d="M4.5 9.40592V5.66996M4.5 9.40592L1.89006 7.66474C1.45435 7.37406 1.2365 7.22872 1.11825 7.00769C1 6.78665 1 6.52476 1 6.001V3.33498M4.5 9.40592L6.25 8.23843L7.10994 7.66474C7.54565 7.37406 7.7635 7.22872 7.88175 7.00769C8 6.78665 8 6.52477 8 6.001V3.33498M4.5 5.66996L1 3.33498M4.5 5.66996L8 3.33498M1 3.33498L3.39006 1.74048C3.92805 1.38157 4.19705 1.20211 4.5 1.20211C4.80295 1.20211 5.07195 1.38157 5.60994 1.74048L8 3.33498" stroke="#FF0000" stroke-linejoin="round"/>
<path d="M5.74805 6.36702C5.74805 6.64317 5.9719 6.86702 6.24805 6.86702C6.52419 6.86702 6.74805 6.64317 6.74805 6.36702H5.74805ZM6.1298 4.5623L5.68892 4.79816L6.1298 4.5623ZM2.47056 2.58L5.0805 4.32119L5.63547 3.48932L3.02553 1.74813L2.47056 2.58ZM6.74805 6.36702V5.56899H5.74805V6.36702H6.74805ZM5.0805 4.32119C5.30596 4.47159 5.44658 4.56601 5.54805 4.64828C5.64148 4.72403 5.67205 4.76661 5.68892 4.79816L6.57067 4.32644C6.4693 4.13695 6.33182 3.99635 6.17783 3.87151C6.03188 3.75317 5.84573 3.62958 5.63547 3.48932L5.0805 4.32119ZM6.74805 5.56899C6.74805 5.31624 6.74855 5.0928 6.73111 4.90572C6.71271 4.70833 6.67205 4.51593 6.57067 4.32644L5.68892 4.79816C5.7058 4.82971 5.72426 4.87877 5.73542 4.99853C5.74755 5.12859 5.74805 5.29797 5.74805 5.56899H6.74805Z" fill="#FF0000"/>
</svg>
