<svg width="7" height="8" viewBox="0 0 7 8" fill="none" xmlns="http://www.w3.org/2000/svg">
<g clip-path="url(#clip0_436_9049)">
<path d="M0 2.0187V1.60746C0 1.31198 0.0643185 1.04317 0.192955 0.801059C0.321591 0.558967 0.505614 0.364929 0.745023 0.218957C0.984433 0.0729843 1.2685 0 1.59724 0C1.93313 0 2.21899 0.0729843 2.45483 0.218957C2.69423 0.364929 2.87826 0.558967 3.00689 0.801059C3.13553 1.04317 3.19985 1.31198 3.19985 1.60746V2.0187C3.19985 2.30708 3.13553 2.57231 3.00689 2.81443C2.88183 3.0565 2.69959 3.25057 2.46019 3.39654C2.22435 3.54252 1.94028 3.61547 1.60796 3.61547C1.27565 3.61547 0.988004 3.54252 0.745023 3.39654C0.505614 3.25057 0.321591 3.0565 0.192955 2.81443C0.0643185 2.57231 0 2.30708 0 2.0187ZM0.745023 1.60746V2.0187C0.745023 2.18247 0.775397 2.33734 0.83614 2.48332C0.900462 2.6293 0.996939 2.74855 1.12558 2.84111C1.25421 2.93014 1.41501 2.97462 1.60796 2.97462C1.80092 2.97462 1.95993 2.93014 2.08499 2.84111C2.21006 2.74855 2.30296 2.6293 2.36371 2.48332C2.42445 2.33734 2.45483 2.18247 2.45483 2.0187V1.60746C2.45483 1.44016 2.42267 1.2835 2.35835 1.13753C2.2976 0.987977 2.20291 0.868725 2.07427 0.779695C1.94921 0.68713 1.7902 0.640865 1.59724 0.640865C1.40786 0.640865 1.24885 0.68713 1.12021 0.779695C0.99515 0.868725 0.900462 0.987977 0.83614 1.13753C0.775397 1.2835 0.745023 1.44016 0.745023 1.60746ZM3.80016 6.39787V5.98131C3.80016 5.68936 3.86448 5.42234 3.9931 5.18023C4.12175 4.93815 4.30576 4.74412 4.54517 4.59815C4.78458 4.45217 5.06866 4.37918 5.39739 4.37918C5.73329 4.37918 6.01916 4.45217 6.25499 4.59815C6.4944 4.74412 6.67841 4.93815 6.80706 5.18023C6.93567 5.42234 7 5.68936 7 5.98131V6.39787C7 6.68983 6.93567 6.95684 6.80706 7.19896C6.68199 7.44103 6.49974 7.63506 6.26033 7.78104C6.02451 7.92701 5.74042 8 5.40811 8C5.0758 8 4.78996 7.92701 4.55055 7.78104C4.31114 7.63506 4.12533 7.44103 3.9931 7.19896C3.86448 6.95684 3.80016 6.68983 3.80016 6.39787ZM4.54517 5.98131V6.39787C4.54517 6.56164 4.57554 6.7183 4.63631 6.86781C4.7006 7.01379 4.79709 7.13308 4.92574 7.22564C5.05436 7.31464 5.21517 7.35915 5.40811 7.35915C5.60109 7.35915 5.76007 7.31464 5.88514 7.22564C6.01379 7.13308 6.10848 7.01379 6.16922 6.86781C6.22996 6.72187 6.26033 6.56521 6.26033 6.39787V5.98131C6.26033 5.81397 6.22817 5.65731 6.16388 5.51134C6.1031 5.3654 6.00844 5.24789 5.87979 5.15886C5.75473 5.0663 5.59391 5.02003 5.39739 5.02003C5.20803 5.02003 5.04901 5.0663 4.92036 5.15886C4.7953 5.24789 4.7006 5.3654 4.63631 5.51134C4.57554 5.65731 4.54517 5.81397 4.54517 5.98131ZM5.64397 1.21762L1.83308 7.29506L1.27565 6.94259L5.08652 0.865152L5.64397 1.21762Z" fill="#FF0000"/>
</g>
<defs>
<clipPath id="clip0_436_9049">
<rect width="7" height="8" fill="white"/>
</clipPath>
</defs>
</svg>
