<svg width="20" height="20" viewBox="0 0 20 20" fill="none" xmlns="http://www.w3.org/2000/svg">
<path d="M3.46093 2.47223L18.2654 3.92955C18.8108 3.98324 19.2114 4.46593 19.1637 5.0119L18.8654 8.42092C18.8261 8.86993 18.4913 9.23716 18.0478 9.31768L5.89369 11.5244M0.932617 0.746094L2.55183 1.08259C2.93852 1.16294 3.24168 1.46337 3.32556 1.84931L6.17352 14.9544C6.27343 15.4141 6.68026 15.7421 7.15072 15.7421H18.9729" stroke="#D8D8D8" stroke-width="1.2" stroke-linecap="round"/>
<path d="M6.74537 18.7005C6.74537 19.0775 6.43978 19.3831 6.06282 19.3831C5.68586 19.3831 5.38027 19.0775 5.38027 18.7005C5.38027 18.3236 5.68586 18.018 6.06282 18.018C6.43978 18.018 6.74537 18.3236 6.74537 18.7005Z" fill="#D8D8D8" stroke="#D8D8D8" stroke-width="1.2"/>
<circle cx="15.5335" cy="18.7005" r="0.682549" fill="#D8D8D8" stroke="#D8D8D8" stroke-width="1.2"/>
</svg>
