<svg width="36" height="23" viewBox="0 0 36 23" fill="none" xmlns="http://www.w3.org/2000/svg">
<path d="M1.29289 14.2929C0.902369 14.6834 0.902369 15.3166 1.29289 15.7071L7.65685 22.0711C8.04738 22.4616 8.68054 22.4616 9.07107 22.0711C9.46159 21.6805 9.46159 21.0474 9.07107 20.6569L3.41421 15L9.07107 9.34315C9.46159 8.95262 9.46159 8.31946 9.07107 7.92893C8.68054 7.53841 8.04738 7.53841 7.65685 7.92893L1.29289 14.2929ZM22.1259 14H2V16H22.1259V14Z" fill="white"/>
<path d="M34.8331 8.70711C35.2236 8.31658 35.2236 7.68342 34.8331 7.29289L28.4691 0.928932C28.0786 0.538407 27.4454 0.538407 27.0549 0.928932C26.6644 1.31946 26.6644 1.95262 27.0549 2.34315L32.7118 8L27.0549 13.6569C26.6644 14.0474 26.6644 14.6805 27.0549 15.0711C27.4454 15.4616 28.0786 15.4616 28.4691 15.0711L34.8331 8.70711ZM14 9L34.126 9L34.126 7L14 7L14 9Z" fill="white"/>
</svg>
