<svg width="32" height="17" viewBox="0 0 32 17" fill="none" xmlns="http://www.w3.org/2000/svg">
<path d="M1.54038 11.5404C1.28654 11.7942 1.28654 12.2058 1.54038 12.4596L5.67696 16.5962C5.9308 16.85 6.34235 16.85 6.59619 16.5962C6.85003 16.3424 6.85003 15.9308 6.59619 15.677L2.91924 12L6.59619 8.32304C6.85003 8.0692 6.85003 7.65765 6.59619 7.40381C6.34235 7.14997 5.9308 7.14997 5.67696 7.40381L1.54038 11.5404ZM22.1259 11.35H2V12.65H22.1259V11.35Z" fill="#464646"/>
<path d="M31.336 5.45962C31.5898 5.20578 31.5898 4.79422 31.336 4.54038L27.1994 0.403806C26.9455 0.149965 26.534 0.149965 26.2801 0.403806C26.0263 0.657646 26.0263 1.0692 26.2801 1.32304L29.9571 5L26.2801 8.67695C26.0263 8.9308 26.0263 9.34235 26.2801 9.59619C26.534 9.85003 26.9455 9.85003 27.1994 9.59619L31.336 5.45962ZM10.7504 5.65L30.8763 5.65L30.8763 4.35L10.7504 4.35L10.7504 5.65Z" fill="#464646"/>
</svg>
