<svg width="17" height="17" viewBox="0 0 17 17" fill="none" xmlns="http://www.w3.org/2000/svg">
<path d="M8.5 14.62C6.375 14.62 4.4965 13.532 3.4 11.9C3.4255 10.2 6.8 9.265 8.5 9.265C10.2 9.265 13.5745 10.2 13.6 11.9C12.5035 13.532 10.625 14.62 8.5 14.62ZM8.5 2.55C9.1763 2.55 9.82491 2.81866 10.3031 3.29688C10.7813 3.7751 11.05 4.4237 11.05 5.1C11.05 5.7763 10.7813 6.4249 10.3031 6.90312C9.82491 7.38134 9.1763 7.65 8.5 7.65C7.8237 7.65 7.1751 7.38134 6.69688 6.90312C6.21866 6.4249 5.95 5.7763 5.95 5.1C5.95 4.4237 6.21866 3.7751 6.69688 3.29688C7.1751 2.81866 7.8237 2.55 8.5 2.55ZM8.5 0C7.38376 0 6.27846 0.219859 5.24719 0.647024C4.21592 1.07419 3.27889 1.70029 2.48959 2.48959C0.895533 4.08365 0 6.24566 0 8.5C0 10.7543 0.895533 12.9163 2.48959 14.5104C3.27889 15.2997 4.21592 15.9258 5.24719 16.353C6.27846 16.7801 7.38376 17 8.5 17C10.7543 17 12.9163 16.1045 14.5104 14.5104C16.1045 12.9163 17 10.7543 17 8.5C17 3.7995 13.175 0 8.5 0Z" fill="white"/>
</svg>
