<svg width="9" height="3" viewBox="0 0 9 3" fill="none" xmlns="http://www.w3.org/2000/svg">
<path d="M0.158203 1.35547C0.158203 1.15495 0.226237 0.986654 0.362305 0.850586C0.498372 0.710938 0.68278 0.641113 0.915527 0.641113C1.15186 0.641113 1.33626 0.710938 1.46875 0.850586C1.60482 0.986654 1.67285 1.15495 1.67285 1.35547C1.67285 1.55599 1.60482 1.72428 1.46875 1.86035C1.33626 1.99642 1.15186 2.06445 0.915527 2.06445C0.68278 2.06445 0.498372 1.99642 0.362305 1.86035C0.226237 1.72428 0.158203 1.55599 0.158203 1.35547ZM7.21973 1.35547C7.21973 1.15495 7.28776 0.986654 7.42383 0.850586C7.5599 0.710938 7.7443 0.641113 7.97705 0.641113C8.21338 0.641113 8.39779 0.710938 8.53027 0.850586C8.66634 0.986654 8.73438 1.15495 8.73438 1.35547C8.73438 1.55599 8.66634 1.72428 8.53027 1.86035C8.39779 1.99642 8.21338 2.06445 7.97705 2.06445C7.7443 2.06445 7.5599 1.99642 7.42383 1.86035C7.28776 1.72428 7.21973 1.55599 7.21973 1.35547ZM3.68896 1.35547C3.68896 1.15495 3.757 0.986654 3.89307 0.850586C4.02913 0.710938 4.21354 0.641113 4.44629 0.641113C4.68262 0.641113 4.86702 0.710938 4.99951 0.850586C5.13558 0.986654 5.20361 1.15495 5.20361 1.35547C5.20361 1.55599 5.13558 1.72428 4.99951 1.86035C4.86702 1.99642 4.68262 2.06445 4.44629 2.06445C4.21354 2.06445 4.02913 1.99642 3.89307 1.86035C3.757 1.72428 3.68896 1.55599 3.68896 1.35547Z" fill="#51526C"/>
</svg>
