<svg width="305" height="305" viewBox="0 0 305 305" fill="none" xmlns="http://www.w3.org/2000/svg">
<rect width="305" height="305" fill="#282828"/>
<path d="M222.417 63.75H83.5833C72.6297 63.75 63.75 72.6297 63.75 83.5833V222.417C63.75 233.37 72.6297 242.25 83.5833 242.25H222.417C233.37 242.25 242.25 233.37 242.25 222.417V83.5833C242.25 72.6297 233.37 63.75 222.417 63.75Z" stroke="white" stroke-width="6" stroke-linecap="round" stroke-linejoin="round"/>
<path d="M242.25 182.75L211.647 152.147C207.928 148.429 202.884 146.34 197.625 146.34C192.366 146.34 187.322 148.429 183.603 152.147L93.5 242.25" stroke="white" stroke-width="5" stroke-linecap="round" stroke-linejoin="round"/>
<path d="M114.427 128.631C109.372 128.631 105.258 124.517 105.258 119.462C105.258 114.407 109.372 110.293 114.427 110.293C119.482 110.293 123.596 114.407 123.596 119.462C123.593 124.517 119.482 128.631 114.427 128.631ZM114.427 112.272C110.461 112.272 107.234 115.499 107.234 119.465C107.234 123.43 110.461 126.657 114.427 126.657C118.392 126.657 121.619 123.43 121.619 119.465C121.619 115.499 118.392 112.272 114.427 112.272Z" fill="white"/>
<path d="M114.426 134.064C113.084 134.064 111.784 133.879 110.551 133.54L108.852 138.272C109.561 138.526 110.28 138.731 111.016 138.887L111.723 144.619C111.816 145.413 112.484 145.976 113.259 145.931L119.273 145.65C120.049 145.603 120.662 144.955 120.711 144.214L120.827 138.452C122.243 137.985 123.614 137.338 124.875 136.542L129.394 140.118C129.996 140.55 130.886 140.491 131.417 139.922L135.459 135.463C135.988 134.894 135.993 133.973 135.425 133.444L131.434 129.301C131.79 128.614 132.092 127.922 132.344 127.22C132.344 127.218 132.346 127.215 132.346 127.215L127.696 125.545C125.391 130.57 120.318 134.064 114.426 134.064Z" fill="white"/>
<path d="M99.8294 119.466C99.8294 118.576 99.9134 117.704 100.067 116.859L95.8909 115.359C95.6661 115.989 95.4808 116.637 95.3449 117.287L90.1834 117.924C89.4694 118.011 88.9604 118.608 89.0024 119.308L89.2569 124.721C89.2989 125.42 89.882 125.971 90.5491 126.016L95.7377 126.12C96.1578 127.395 96.7409 128.63 97.4994 129.779L94.28 133.848C93.8303 134.419 93.8847 135.22 94.4554 135.669L98.4704 139.309C98.9819 139.786 99.8121 139.79 100.289 139.279L104.02 135.686C104.623 135.998 105.228 136.265 105.846 136.489C105.856 136.494 105.868 136.497 105.878 136.499L107.4 132.262C102.886 129.779 99.8294 124.981 99.8294 119.466Z" fill="white"/>
<path d="M139.628 114.396C139.586 113.684 139.005 113.079 138.311 113.076L133.026 112.97C132.596 111.67 132.003 110.413 131.23 109.239L134.511 105.093C134.968 104.513 134.896 103.739 134.33 103.238L130.239 99.529C129.717 99.0423 128.872 99.0373 128.386 99.5611L124.583 103.22C123.958 102.897 123.33 102.622 122.691 102.393L121.203 106.536C125.851 108.977 129.023 113.85 129.023 119.466C129.023 120.486 128.917 121.484 128.717 122.445L132.868 123.935C133.097 123.293 133.283 122.641 133.424 121.971L138.681 121.321C139.41 121.235 139.927 120.624 139.885 119.913L139.628 114.396Z" fill="white"/>
<path d="M114.426 104.87C115.8 104.87 117.127 105.063 118.387 105.418L120.057 100.768C120.052 100.766 120.045 100.763 120.04 100.761C119.328 100.504 118.605 100.301 117.863 100.143L117.147 94.332C117.05 93.5265 116.376 92.9558 115.59 93.0027L109.495 93.2869C108.709 93.3338 108.086 93.991 108.037 94.7421L107.918 100.583C106.483 101.057 105.092 101.712 103.814 102.518L99.2311 98.8931C98.5887 98.3865 97.7339 98.4656 97.1804 99.0907L93.0814 103.612C92.5452 104.19 92.5403 105.122 93.116 105.66L97.1606 109.863C96.8098 110.535 96.5034 111.235 96.244 111.954C96.2415 111.961 96.239 111.971 96.2365 111.978L101.017 113.695C103.251 108.507 108.413 104.87 114.426 104.87Z" fill="#FF0000"/>
<path d="M222.417 63.75H83.5833C72.6297 63.75 63.75 72.6297 63.75 83.5833V222.417C63.75 233.37 72.6297 242.25 83.5833 242.25H222.417C233.37 242.25 242.25 233.37 242.25 222.417V83.5833C242.25 72.6297 233.37 63.75 222.417 63.75Z" stroke="white" stroke-width="10" stroke-linecap="round" stroke-linejoin="round"/>
<path d="M242.25 182.752L211.647 152.149C207.928 148.431 202.884 146.342 197.625 146.342C192.366 146.342 187.322 148.431 183.603 152.149L93.5 242.252" stroke="white" stroke-width="9" stroke-linecap="round" stroke-linejoin="round"/>
</svg>
