<svg width="11" height="11" viewBox="0 0 11 11" fill="none" xmlns="http://www.w3.org/2000/svg">
<path d="M4.74165 7.99036L8.5604 4.17161L7.80206 3.41328L4.74165 6.4737L3.1979 4.92995L2.43956 5.68828L4.74165 7.99036ZM5.49998 10.9154C4.75067 10.9154 4.04651 10.7732 3.38748 10.4888C2.72845 10.2044 2.15519 9.81849 1.66769 9.33099C1.18019 8.84349 0.79425 8.27022 0.509875 7.6112C0.2255 6.95217 0.083313 6.248 0.083313 5.4987C0.083313 4.74939 0.2255 4.04523 0.509875 3.3862C0.79425 2.72717 1.18019 2.15391 1.66769 1.66641C2.15519 1.17891 2.72845 0.792969 3.38748 0.508594C4.04651 0.224219 4.75067 0.0820312 5.49998 0.0820312C6.24928 0.0820312 6.95345 0.224219 7.61248 0.508594C8.27151 0.792969 8.84477 1.17891 9.33227 1.66641C9.81977 2.15391 10.2057 2.72717 10.4901 3.3862C10.7745 4.04523 10.9166 4.74939 10.9166 5.4987C10.9166 6.248 10.7745 6.95217 10.4901 7.6112C10.2057 8.27022 9.81977 8.84349 9.33227 9.33099C8.84477 9.81849 8.27151 10.2044 7.61248 10.4888C6.95345 10.7732 6.24928 10.9154 5.49998 10.9154Z" fill="#6B6C6B"/>
</svg>
