<svg width="24" height="24" viewBox="0 0 24 24" fill="none" xmlns="http://www.w3.org/2000/svg">
<path d="M9.5625 10.375H1.4375C0.9888 10.375 0.625 10.0116 0.625 9.5625V1.4375C0.625 0.988403 0.9888 0.625 1.4375 0.625H9.5625C10.0112 0.625 10.375 0.988403 10.375 1.4375V9.5625C10.375 10.0116 10.0112 10.375 9.5625 10.375ZM6.25 8.75H5.75V2.25H6.25V8.75Z" fill="black"/>
<path d="M22.5625 10.375H14.4375C13.9888 10.375 13.625 10.0116 13.625 9.5625V1.4375C13.625 0.988403 13.9888 0.625 14.4375 0.625H22.5625C23.0112 0.625 23.375 0.988403 23.375 1.4375V9.5625C23.375 10.0116 23.0112 10.375 22.5625 10.375ZM18.25 8.75H17.75V2.25H18.25V8.75Z" fill="black"/>
<path d="M9.5625 23.375H1.4375C0.9888 23.375 0.625 23.0116 0.625 22.5625V14.4375C0.625 13.9884 0.9888 13.625 1.4375 13.625H9.5625C10.0112 13.625 10.375 13.9884 10.375 14.4375V22.5625C10.375 23.0116 10.0112 23.375 9.5625 23.375ZM5.25 21.75H4.75V15.25H5.25V21.75Z" fill="black"/>
<path d="M16.9778 20.8351C16.7623 20.8351 16.5556 20.7495 16.4033 20.5971L13.863 18.0565C13.5457 17.7391 13.5457 17.2249 13.863 16.9075C14.1804 16.5901 14.6946 16.5901 15.012 16.9075L16.9778 18.8737L21.988 13.863C22.3054 13.5457 22.8196 13.5457 23.137 13.863C23.4543 14.1804 23.4543 14.6946 23.137 15.012L17.5522 20.5971C17.3999 20.7495 17.1932 20.8351 16.9778 20.8351Z" fill="black"/>
</svg>
