<svg width="122" height="89" viewBox="0 0 122 89" fill="none" xmlns="http://www.w3.org/2000/svg">
<path d="M122 30.5863V33.3149C122 35.0594 120.56 36.4907 118.805 36.4907H3.19454C1.43979 36.4907 0 35.0594 0 33.3149V30.5863C0 30.2285 0.0899885 29.8706 0.247466 29.5799C0.539924 29.0208 1.05735 28.6182 1.66476 28.4616C1.82224 28.4169 2.00221 28.3945 2.18219 28.3945H119.773C121.01 28.3945 122 29.3786 122 30.5863Z" fill="#B4B4B4" fill-opacity="0.39"/>
<path d="M57.3896 1.41741L45.6849 25.6952H41.7383L54.0293 0.25L57.3896 1.41741Z" fill="#B4B4B4" fill-opacity="0.39"/>
<path d="M80.2646 25.6952H76.3179L64.6133 1.41741L67.9736 0.25L80.2646 25.6952Z" fill="#B4B4B4" fill-opacity="0.39"/>
<path d="M80.2646 25.6952H76.3179L64.6133 1.41741L67.9736 0.25L80.2646 25.6952Z" fill="#B4B4B4" fill-opacity="0.39"/>
<path d="M57.3896 1.41741L45.6849 25.6952H41.7383L54.0293 0.25L57.3896 1.41741Z" fill="#B4B4B4" fill-opacity="0.39"/>
<path d="M6.86538 39.1875C6.84285 39.2306 6.84285 39.2521 6.84285 39.2952C6.84285 39.3383 6.82031 39.3814 6.82031 39.4245L18.6069 83.9929C19.2604 86.4485 21.5592 88.1503 24.1959 88.1503H97.3267C99.9409 88.1503 102.24 86.4485 102.916 84.0359L115.176 39.1875H6.86538ZM30.9569 80.6755C30.9118 80.6755 30.8892 80.6755 30.8442 80.6755C30.0779 80.6755 29.4469 80.1155 29.3793 79.3831L27.058 50.7766C26.9904 50.0011 27.5989 49.3333 28.4102 49.2687C29.2215 49.2041 29.9202 49.7857 29.9878 50.5612L32.309 79.1677C32.3541 79.9431 31.7682 80.6325 30.9569 80.6755ZM45.8535 80.7186C45.8309 80.7186 45.8309 80.7186 45.8084 80.7186C45.0196 80.7186 44.366 80.1155 44.3435 79.3615L43.3744 50.6904C43.3519 49.9149 43.9829 49.2687 44.7942 49.2472C45.6055 49.2256 46.2816 49.8288 46.3042 50.6042L47.2732 79.2754C47.3183 80.0508 46.6648 80.6971 45.8535 80.7186ZM62.4403 79.34C62.4403 80.1155 61.7867 80.7402 60.9754 80.7402C60.1641 80.7402 59.5105 80.1155 59.5105 79.34V50.6473C59.5105 49.8719 60.1641 49.2472 60.9754 49.2472C61.7867 49.2472 62.4403 49.8719 62.4403 50.6473V79.34ZM77.6073 79.3615C77.5848 80.1155 76.9312 80.7186 76.1424 80.7186C76.1199 80.7186 76.1199 80.7186 76.0974 80.7186C75.2861 80.6971 74.655 80.0508 74.6776 79.2754L75.6466 50.6042C75.6692 49.8288 76.3453 49.2256 77.1566 49.2472C77.9679 49.2687 78.5989 49.9149 78.5764 50.6904L77.6073 79.3615ZM94.9153 50.7981L92.5941 79.4046C92.5264 80.137 91.8954 80.6971 91.1292 80.6971C91.0841 80.6971 91.0616 80.6971 91.0165 80.6971C90.2052 80.6325 89.5967 79.9647 89.6643 79.1892L91.9856 50.5827C92.0532 49.8072 92.7518 49.2472 93.5631 49.2902C94.3744 49.3549 94.9604 50.0226 94.9153 50.7981Z" fill="#B4B4B4" fill-opacity="0.39"/>
</svg>
