<svg width="164" height="112" viewBox="0 0 164 112" fill="none" xmlns="http://www.w3.org/2000/svg">
<path d="M143 42.6254V45.3539C143 47.0984 141.56 48.5298 139.805 48.5298H24.1945C22.4398 48.5298 21 47.0984 21 45.3539V42.6254C21 42.2675 21.09 41.9097 21.2475 41.619C21.5399 41.0598 22.0573 40.6572 22.6648 40.5007C22.8222 40.456 23.0022 40.4336 23.1822 40.4336H140.773C142.01 40.4336 143 41.4177 143 42.6254Z" fill="#F5F4F2"/>
<path d="M78.3896 13.4565L66.6849 37.7343H62.7383L75.0293 12.2891L78.3896 13.4565Z" fill="#F5F4F2"/>
<path d="M101.265 37.7343H97.3179L85.6133 13.4565L88.9736 12.2891L101.265 37.7343Z" fill="#F5F4F2"/>
<path d="M101.265 37.7343H97.3179L85.6133 13.4565L88.9736 12.2891L101.265 37.7343Z" fill="#F5F4F2"/>
<path d="M78.3896 13.4565L66.6849 37.7343H62.7383L75.0293 12.2891L78.3896 13.4565Z" fill="#F5F4F2"/>
<path d="M27.8654 51.2266C27.8428 51.2696 27.8428 51.2912 27.8428 51.3343C27.8428 51.3773 27.8203 51.4204 27.8203 51.4635L39.6069 96.0319C40.2604 98.4876 42.5592 100.189 45.1959 100.189H118.327C120.941 100.189 123.24 98.4876 123.916 96.075L136.176 51.2266H27.8654ZM51.9569 92.7146C51.9118 92.7146 51.8892 92.7146 51.8442 92.7146C51.0779 92.7146 50.4469 92.1545 50.3793 91.4221L48.058 62.8156C47.9904 62.0402 48.5989 61.3724 49.4102 61.3078C50.2215 61.2431 50.9202 61.8248 50.9878 62.6002L53.309 91.2067C53.3541 91.9822 52.7682 92.6715 51.9569 92.7146ZM66.8535 92.7577C66.8309 92.7577 66.8309 92.7577 66.8084 92.7577C66.0196 92.7577 65.366 92.1545 65.3435 91.4006L64.3744 62.7295C64.3519 61.954 64.9829 61.3078 65.7942 61.2862C66.6055 61.2647 67.2816 61.8678 67.3042 62.6433L68.2732 91.3144C68.3183 92.0899 67.6648 92.7361 66.8535 92.7577ZM83.4403 91.3791C83.4403 92.1545 82.7867 92.7792 81.9754 92.7792C81.1641 92.7792 80.5105 92.1545 80.5105 91.3791V62.6864C80.5105 61.9109 81.1641 61.2862 81.9754 61.2862C82.7867 61.2862 83.4403 61.9109 83.4403 62.6864V91.3791ZM98.6073 91.4006C98.5848 92.1545 97.9312 92.7577 97.1424 92.7577C97.1199 92.7577 97.1199 92.7577 97.0974 92.7577C96.2861 92.7361 95.655 92.0899 95.6776 91.3144L96.6466 62.6433C96.6692 61.8678 97.3453 61.2647 98.1566 61.2862C98.9679 61.3078 99.5989 61.954 99.5764 62.7295L98.6073 91.4006ZM115.915 62.8372L113.594 91.4437C113.526 92.1761 112.895 92.7361 112.129 92.7361C112.084 92.7361 112.062 92.7361 112.017 92.7361C111.205 92.6715 110.597 92.0037 110.664 91.2283L112.986 62.6218C113.053 61.8463 113.752 61.2862 114.563 61.3293C115.374 61.3939 115.96 62.0617 115.915 62.8372Z" fill="#F5F4F2"/>
</svg>
