<svg width="16" height="18" viewBox="0 0 16 18" fill="none" xmlns="http://www.w3.org/2000/svg">
<path d="M4.375 10.793C4.13889 10.793 3.94097 10.7131 3.78125 10.5534C3.62153 10.3937 3.54167 10.1957 3.54167 9.95963C3.54167 9.72352 3.62153 9.52561 3.78125 9.36588C3.94097 9.20616 4.13889 9.1263 4.375 9.1263C4.61111 9.1263 4.80903 9.20616 4.96875 9.36588C5.12847 9.52561 5.20833 9.72352 5.20833 9.95963C5.20833 10.1957 5.12847 10.3937 4.96875 10.5534C4.80903 10.7131 4.61111 10.793 4.375 10.793ZM8.0625 10.793C7.82639 10.793 7.62847 10.7131 7.46875 10.5534C7.30903 10.3937 7.22917 10.1957 7.22917 9.95963C7.22917 9.72352 7.30903 9.52561 7.46875 9.36588C7.62847 9.20616 7.82639 9.1263 8.0625 9.1263C8.29861 9.1263 8.49653 9.20616 8.65625 9.36588C8.81597 9.52561 8.89583 9.72352 8.89583 9.95963C8.89583 10.1957 8.81597 10.3937 8.65625 10.5534C8.49653 10.7131 8.29861 10.793 8.0625 10.793ZM11.6042 10.793C11.3681 10.793 11.1701 10.7131 11.0104 10.5534C10.8507 10.3937 10.7708 10.1957 10.7708 9.95963C10.7708 9.72352 10.8507 9.52561 11.0104 9.36588C11.1701 9.20616 11.3681 9.1263 11.6042 9.1263C11.8403 9.1263 12.0382 9.20616 12.1979 9.36588C12.3576 9.52561 12.4375 9.72352 12.4375 9.95963C12.4375 10.1957 12.3576 10.3937 12.1979 10.5534C12.0382 10.7131 11.8403 10.793 11.6042 10.793ZM1.75 17.3346C1.41667 17.3346 1.125 17.2096 0.875 16.9596C0.625 16.7096 0.5 16.418 0.5 16.0846V3.16797C0.5 2.83464 0.625 2.54297 0.875 2.29297C1.125 2.04297 1.41667 1.91797 1.75 1.91797H3.10417V0.667969H4.45833V1.91797H11.5417V0.667969H12.8958V1.91797H14.25C14.5833 1.91797 14.875 2.04297 15.125 2.29297C15.375 2.54297 15.5 2.83464 15.5 3.16797V16.0846C15.5 16.418 15.375 16.7096 15.125 16.9596C14.875 17.2096 14.5833 17.3346 14.25 17.3346H1.75ZM1.75 16.0846H14.25V7.1263H1.75V16.0846Z" fill="#ACABAB"/>
</svg>
