<svg width="11" height="11" viewBox="0 0 11 11" fill="none" xmlns="http://www.w3.org/2000/svg">
<circle cx="5.5" cy="5.5" r="4.5" fill="black"/>
<path d="M4.74134 7.99427L8.56009 4.17552L7.80176 3.41719L4.74134 6.4776L3.19759 4.93385L2.43926 5.69219L4.74134 7.99427ZM5.49967 10.9193C4.75037 10.9193 4.0462 10.7771 3.38717 10.4927C2.72815 10.2083 2.15488 9.82239 1.66738 9.33489C1.17988 8.84739 0.793945 8.27413 0.50957 7.6151C0.225195 6.95608 0.0830078 6.25191 0.0830078 5.5026C0.0830078 4.7533 0.225195 4.04913 0.50957 3.3901C0.793945 2.73108 1.17988 2.15781 1.66738 1.67031C2.15488 1.18281 2.72815 0.796875 3.38717 0.5125C4.0462 0.228125 4.75037 0.0859375 5.49967 0.0859375C6.24898 0.0859375 6.95315 0.228125 7.61217 0.5125C8.2712 0.796875 8.84447 1.18281 9.33197 1.67031C9.81947 2.15781 10.2054 2.73108 10.4898 3.3901C10.7742 4.04913 10.9163 4.7533 10.9163 5.5026C10.9163 6.25191 10.7742 6.95608 10.4898 7.6151C10.2054 8.27413 9.81947 8.84739 9.33197 9.33489C8.84447 9.82239 8.2712 10.2083 7.61217 10.4927C6.95315 10.7771 6.24898 10.9193 5.49967 10.9193Z" fill="#00F619"/>
</svg>
