<svg width="18" height="18" viewBox="0 0 18 18" fill="none" xmlns="http://www.w3.org/2000/svg">
<path fill-rule="evenodd" clip-rule="evenodd" d="M9 1.17499C5.54822 1.17499 2.75 3.97321 2.75 7.42499C2.75 8.06392 2.9859 8.84924 3.4074 9.72621C3.82508 10.5952 4.4049 11.5135 5.0464 12.4069C6.32915 14.1935 7.82786 15.8388 8.67875 16.7313C8.85771 16.919 9.14229 16.919 9.32125 16.7313C10.1721 15.8388 11.6708 14.1935 12.9536 12.4069C13.5951 11.5135 14.1749 10.5952 14.5926 9.72621C15.0141 8.84924 15.25 8.06392 15.25 7.42499C15.25 3.97321 12.4518 1.17499 9 1.17499ZM1.75 7.42499C1.75 3.42092 4.99594 0.174988 9 0.174988C13.0041 0.174988 16.25 3.42092 16.25 7.42499C16.25 8.28269 15.9419 9.22723 15.4939 10.1594C15.042 11.0996 14.4267 12.0698 13.7659 12.9901C12.444 14.8312 10.9093 16.5148 10.045 17.4213C9.47203 18.0223 8.52797 18.0223 7.955 17.4213C7.09072 16.5148 5.55598 14.8312 4.23409 12.9901C3.57327 12.0698 2.95797 11.0996 2.5061 10.1594C2.05806 9.22723 1.75 8.28269 1.75 7.42499ZM9 4.64999C7.77807 4.64999 6.7875 5.64056 6.7875 6.86249C6.7875 8.08442 7.77807 9.07499 9 9.07499C10.2219 9.07499 11.2125 8.08442 11.2125 6.86249C11.2125 5.64056 10.2219 4.64999 9 4.64999ZM5.5875 6.86249C5.5875 4.97782 7.11533 3.44999 9 3.44999C10.8847 3.44999 12.4125 4.97782 12.4125 6.86249C12.4125 8.74716 10.8847 10.275 9 10.275C7.11533 10.275 5.5875 8.74716 5.5875 6.86249Z" fill="#FF0000"/>
<circle cx="9" cy="6.86249" r="2.8125" stroke="#FF0000"/>
</svg>
