<svg width="11" height="11" viewBox="0 0 11 11" fill="none" xmlns="http://www.w3.org/2000/svg">
<path d="M4.74165 7.99232L8.5604 4.17357L7.80206 3.41523L4.74165 6.47565L3.1979 4.9319L2.43956 5.69023L4.74165 7.99232ZM5.49998 10.9173C4.75067 10.9173 4.04651 10.7751 3.38748 10.4908C2.72845 10.2064 2.15519 9.82044 1.66769 9.33294C1.18019 8.84544 0.79425 8.27218 0.509875 7.61315C0.2255 6.95412 0.083313 6.24996 0.083313 5.50065C0.083313 4.75134 0.2255 4.04718 0.509875 3.38815C0.79425 2.72912 1.18019 2.15586 1.66769 1.66836C2.15519 1.18086 2.72845 0.794922 3.38748 0.510547C4.04651 0.226172 4.75067 0.0839844 5.49998 0.0839844C6.24928 0.0839844 6.95345 0.226172 7.61248 0.510547C8.27151 0.794922 8.84477 1.18086 9.33227 1.66836C9.81977 2.15586 10.2057 2.72912 10.4901 3.38815C10.7745 4.04718 10.9166 4.75134 10.9166 5.50065C10.9166 6.24996 10.7745 6.95412 10.4901 7.61315C10.2057 8.27218 9.81977 8.84544 9.33227 9.33294C8.84477 9.82044 8.27151 10.2064 7.61248 10.4908C6.95345 10.7751 6.24928 10.9173 5.49998 10.9173Z" fill="#00F619"/>
</svg>
