<svg width="17" height="18" viewBox="0 0 17 18" fill="none" xmlns="http://www.w3.org/2000/svg">
<path d="M12.3644 9.77344C10.2312 9.77344 8.5 11.5047 8.5 13.6378C8.5 15.7709 10.2312 17.5022 12.3644 17.5022C14.4975 17.5022 16.2287 15.7709 16.2287 13.6378C16.2287 11.5047 14.4975 9.77344 12.3644 9.77344ZM14.683 14.0242H12.7508V15.9564H11.9779V14.0242H10.0457V13.2514H11.9779V11.3192H12.7508V13.2514H14.683V14.0242Z" fill="white"/>
<path d="M7.48775 11.3202C7.76598 10.7406 8.13696 10.215 8.59296 9.77448H3.86298V8.22873H12.3646C13.1916 8.22873 13.9799 8.42195 14.6832 8.76201V3.59149C14.6832 2.74133 13.9876 2.04575 13.1375 2.04575H9.90684C9.58224 1.14921 8.73208 0.5 7.72734 0.5C6.72261 0.5 5.87245 1.14921 5.54784 2.04575H2.31723C1.46707 2.04575 0.771484 2.74133 0.771484 3.59149V14.4117C0.771484 15.2619 1.46707 15.9575 2.31723 15.9575H7.48775C7.14769 15.2541 6.95447 14.4658 6.95447 13.6388C6.95447 13.3761 6.97765 13.121 7.0163 12.866H3.86298V11.3202H7.48775ZM7.72734 1.85253C8.04422 1.85253 8.307 2.1153 8.307 2.43218C8.307 2.74906 8.04422 3.01184 7.72734 3.01184C7.41046 3.01184 7.14769 2.74906 7.14769 2.43218C7.14769 2.1153 7.41046 1.85253 7.72734 1.85253ZM3.86298 5.13724H11.5917V6.68298H3.86298V5.13724Z" fill="white"/>
</svg>
