<svg width="24" height="22" viewBox="0 0 24 22" fill="none" xmlns="http://www.w3.org/2000/svg">
<path d="M11.4579 6.34V11.7463C11.0143 11.5098 10.5657 11.2734 10.1172 11.037C8.99339 10.4434 7.86959 9.84978 6.74332 9.2562C6.58066 9.16999 6.43033 9.08132 6.25781 8.99758V3.59375C6.3071 3.62331 6.37364 3.65286 6.43033 3.68242C6.43279 3.68488 6.43526 3.68488 6.43772 3.68734C6.6053 3.77601 6.77043 3.86222 6.93801 3.95089C6.99223 3.98044 7.04891 4.01 7.10313 4.03955C7.15981 4.06911 7.21403 4.09867 7.27072 4.12822C7.38162 4.18733 7.49498 4.24645 7.60589 4.30556C8.72969 4.89914 9.85596 5.4878 10.9798 6.08139C10.9847 6.08385 10.9872 6.08138 10.9921 6.08385C11.0192 6.09863 11.0463 6.11587 11.0734 6.11587C11.0783 6.1405 11.0833 6.13064 11.0857 6.13311C11.1498 6.16759 11.2114 6.20454 11.2755 6.23902C11.3125 6.25872 11.3445 6.28089 11.3815 6.30059C11.4086 6.31044 11.4332 6.32769 11.4579 6.34Z" fill="#282828"/>
<path d="M17.7469 3.60352V9.00242H17.7445C17.6656 9.03937 17.6065 9.07385 17.5375 9.11079C16.4654 9.67729 15.3934 10.2413 14.3213 10.8078C14.3016 10.8177 14.2843 10.83 14.2622 10.8398C13.6904 11.1403 13.1137 11.4359 12.5469 11.7388V6.33991C12.5962 6.30297 12.68 6.26849 12.749 6.23154C13.821 5.66505 14.8931 5.09856 15.9651 4.53453C16.5591 4.22173 17.1555 3.91632 17.7469 3.60352Z" fill="#282828"/>
<path d="M17.1307 2.70931C16.7118 2.93098 16.2953 3.15018 15.8763 3.37185C14.7525 3.96544 13.6287 4.55902 12.5024 5.15261C12.3349 5.24127 12.1673 5.32994 11.9997 5.41861C11.3811 5.09103 10.7625 4.76591 10.1439 4.43833C9.05216 3.86199 7.96286 3.28565 6.87109 2.70931C7.29006 2.48763 7.70655 2.26843 8.12552 2.04676C9.24932 1.45317 10.3731 0.859589 11.4969 0.266004C11.6645 0.177336 11.8321 0.0886682 11.9997 0C12.6183 0.32758 13.2369 0.652696 13.8579 0.980276C14.9472 1.55662 16.039 2.13296 17.1307 2.70931Z" fill="#282828"/>
<path d="M5.1976 16.2702V21.6691C4.72935 21.4376 4.31285 21.2036 3.87417 20.9721C2.75037 20.3785 1.62902 19.7849 0.505219 19.1938C0.33517 19.1051 0.147869 19.014 0 18.9253V13.5215C0.0739346 13.5732 0.19223 13.6249 0.290809 13.6742C0.305596 13.6816 0.317919 13.689 0.330241 13.6964C0.497826 13.785 0.665411 13.8786 0.835461 13.9673C1.00305 14.056 1.17063 14.1397 1.33822 14.2382C2.45463 14.8293 3.57104 15.4131 4.68745 16.0017C4.68992 16.0017 4.69238 16.0017 4.69484 16.0017C4.69731 16.0017 4.69977 16.0017 4.69977 16.0042C4.7047 16.0067 4.70717 16.0067 4.7121 16.0091C4.74413 16.0264 4.77371 16.0411 4.80575 16.0584C4.9339 16.1273 5.05959 16.1963 5.19021 16.2653C5.19021 16.2677 5.19267 16.2702 5.1976 16.2702Z" fill="#282828"/>
<path d="M11.4579 13.5273V18.9263C10.8418 19.2538 10.2182 19.5814 9.59719 19.909C8.48324 20.4976 7.39148 21.0838 6.25781 21.6725V16.2687C6.25781 16.2637 6.27506 16.2613 6.28246 16.2564C6.34407 16.2243 6.40568 16.1923 6.46483 16.1603C6.93308 15.9115 7.4038 15.6652 7.87205 15.4165C8.47585 15.0987 9.07965 14.7786 9.68098 14.4608C9.90279 14.3426 10.1246 14.2268 10.3489 14.1111C10.4031 14.084 10.4548 14.0544 10.509 14.0273C10.7629 13.8943 11.0143 13.7638 11.2681 13.6283C11.3347 13.5938 11.4086 13.5618 11.4579 13.5273Z" fill="#282828"/>
<path d="M10.8454 12.6336C10.4511 12.8552 10.0173 13.0769 9.59838 13.2961C8.47457 13.8897 7.35323 14.4833 6.22942 15.0793C6.14563 15.1237 6.0643 15.168 5.98051 15.2123C5.89672 15.2567 5.81293 15.301 5.72913 15.3453L3.87584 14.365C2.78407 13.7887 1.69477 13.2124 0.605469 12.636C1.02443 12.4143 1.44093 12.1951 1.85989 11.9735C2.9837 11.3799 4.1075 10.7888 5.23131 10.1952C5.39889 10.1065 5.56648 10.0055 5.73406 9.93164C5.88933 10.0055 6.04212 10.0917 6.19739 10.173C6.66071 10.4193 7.1191 10.6607 7.58243 10.907C8.67173 11.4833 9.76103 12.0572 10.8454 12.6336Z" fill="#282828"/>
<path d="M17.7469 16.2712V21.6701C17.2787 21.4386 16.8622 21.2046 16.421 20.9731C15.2972 20.3795 14.1759 19.7859 13.0521 19.1948C12.882 19.1061 12.7194 19.015 12.5469 18.9263V13.5176C12.9905 13.754 13.439 13.9905 13.8876 14.2294C15.0114 14.823 16.1352 15.419 17.2614 16.0126C17.2935 16.0298 17.323 16.0446 17.3551 16.0619C17.4857 16.1308 17.5991 16.2023 17.7469 16.2712Z" fill="#282828"/>
<path d="M23.9994 13.5293C23.4966 13.7953 22.9914 14.0564 22.4862 14.3224C22.4837 14.3248 22.4813 14.3248 22.4788 14.3273C22.4418 14.347 22.4073 14.3643 22.3704 14.384C22.3334 14.4037 22.2989 14.4209 22.2644 14.4406C22.2521 14.448 22.2373 14.4554 22.225 14.4603C22.2324 14.4579 22.2373 14.4529 22.2447 14.4505C22.2422 14.4529 22.2373 14.4529 22.2348 14.4554C22.2324 14.4579 22.2274 14.4579 22.225 14.4603C21.1529 15.0268 20.0809 15.5908 19.0113 16.1573C19.0039 16.1622 18.994 16.1647 18.9866 16.1696C18.93 16.2017 18.8757 16.2312 18.8067 16.2632L18.8043 16.2608H18.7969V21.6695C19.9305 21.0833 21.0223 20.4947 22.1363 19.906C22.7573 19.5784 23.3808 19.2509 23.9969 18.9233L23.9994 13.5293ZM18.8043 16.2657C18.8634 16.2337 18.9226 16.2017 18.9842 16.1721C18.925 16.2041 18.8733 16.2361 18.8043 16.2657Z" fill="#282828"/>
<path d="M23.3953 12.6356C22.9764 12.8573 22.5599 13.0765 22.1409 13.2981C21.0171 13.8917 19.8933 14.4853 18.7695 15.0789C18.7079 15.1109 18.6438 15.1454 18.5822 15.1774C18.5797 15.1774 18.5773 15.1799 18.5773 15.1799C18.5107 15.2144 18.4442 15.2513 18.3752 15.2883C18.3382 15.308 18.3037 15.3227 18.2692 15.3474C17.6506 15.0025 17.032 14.6897 16.411 14.3622C15.8663 14.074 15.3192 13.7834 14.7746 13.4952C14.501 13.3499 14.2299 13.207 13.9564 13.0642C13.8874 13.0272 13.8208 12.9927 13.7518 12.9558C13.5473 12.8474 13.3452 12.739 13.1406 12.6307C13.5571 12.4115 13.9761 12.1898 14.3926 11.9706C15.5164 11.377 16.6402 10.7834 17.7665 10.1898C17.934 10.1012 18.1016 10.0125 18.2692 9.92383C18.8878 10.2514 19.5064 10.579 20.125 10.9041C21.2143 11.4829 22.3036 12.0593 23.3953 12.6356Z" fill="#282828"/>
</svg>
