<svg width="21" height="21" viewBox="0 0 21 21" fill="none" xmlns="http://www.w3.org/2000/svg">
<path d="M17.625 5.73421C14.9888 5.47296 12.3367 5.33838 9.6925 5.33838C8.125 5.33838 6.5575 5.41755 4.99 5.57588L3.375 5.73421" stroke="#928F8F" stroke-linecap="round" stroke-linejoin="round"/>
<path d="M7.72949 4.93475L7.90366 3.89766C8.03033 3.14558 8.12533 2.5835 9.46324 2.5835H11.5374C12.8753 2.5835 12.9782 3.17725 13.097 3.90558L13.2712 4.93475" stroke="#928F8F" stroke-linecap="round" stroke-linejoin="round"/>
<path d="M15.923 8.23584L15.4084 16.2079C15.3213 17.4508 15.2501 18.4167 13.0413 18.4167H7.95881C5.75006 18.4167 5.67882 17.4508 5.59173 16.2079L5.07715 8.23584" stroke="#928F8F" stroke-linecap="round" stroke-linejoin="round"/>
<path d="M9.17773 14.0625H11.814" stroke="#928F8F" stroke-linecap="round" stroke-linejoin="round"/>
<path d="M8.52051 10.896H12.4788" stroke="#928F8F" stroke-linecap="round" stroke-linejoin="round"/>
</svg>
