<svg width="10" height="10" viewBox="0 0 10 10" fill="none" xmlns="http://www.w3.org/2000/svg">
<g id="time" clip-path="url(#clip0_9_2846)">
<g id="Mask group">
<mask id="mask0_9_2846" style="mask-type:luminance" maskUnits="userSpaceOnUse" x="0" y="0" width="10" height="10">
<g id="Group">
<path id="Vector" d="M5 0.5C4.10998 0.5 3.23995 0.763921 2.49993 1.25839C1.75991 1.75285 1.18314 2.45566 0.842544 3.27792C0.50195 4.10019 0.412835 5.00499 0.586468 5.87791C0.760102 6.75082 1.18869 7.55264 1.81802 8.18198C2.44736 8.81132 3.24918 9.2399 4.12209 9.41353C4.99501 9.58717 5.89981 9.49805 6.72207 9.15746C7.54434 8.81686 8.24715 8.24009 8.74161 7.50007C9.23608 6.76004 9.5 5.89002 9.5 5H5V0.5Z" fill="white"/>
</g>
</mask>
<g mask="url(#mask0_9_2846)">
<path id="Vector_2" d="M5 0.5C4.10998 0.5 3.23995 0.763921 2.49993 1.25839C1.75991 1.75285 1.18314 2.45566 0.842544 3.27792C0.50195 4.10019 0.412835 5.00499 0.586468 5.87791C0.760102 6.75082 1.18869 7.55264 1.81802 8.18198C2.44736 8.81132 3.24918 9.2399 4.12209 9.41353C4.99501 9.58717 5.89981 9.49805 6.72207 9.15746C7.54434 8.81686 8.24715 8.24009 8.74161 7.50007C9.23608 6.76004 9.5 5.89002 9.5 5H5V0.5Z" stroke="#929292" stroke-width="2"/>
</g>
</g>
<path id="Vector_3" d="M5 7.25V9.5" stroke="#929292"/>
<path id="Vector_4" d="M2.75195 5.00391H0.501953" stroke="#929292"/>
<path id="Vector_5" d="M5 9.00391C7.20914 9.00391 9 7.21305 9 5.00391C9 2.79477 7.20914 1.00391 5 1.00391C2.79086 1.00391 1 2.79477 1 5.00391C1 7.21305 2.79086 9.00391 5 9.00391Z" stroke="#929292"/>
</g>
<defs>
<clipPath id="clip0_9_2846">
<rect width="9" height="9" fill="white" transform="translate(0.5 0.5)"/>
</clipPath>
</defs>
</svg>
