<svg width="9" height="10" viewBox="0 0 9 10" fill="none" xmlns="http://www.w3.org/2000/svg">
<path d="M1.888 2.87579H4.18569M7.27502 4.47015V5.23217L2.74243 6.05512M1 2.26953L1.79202 2.43412L2.90084 7.53644H7.33613" stroke="#FF0000" stroke-linecap="round"/>
<circle cx="2.80397" cy="8.58327" r="0.450459" fill="#FF0000"/>
<circle cx="6.13015" cy="8.58327" r="0.450459" fill="#FF0000"/>
<path d="M6.47438 2.23847L7.02915 2.52453L8 1.76172" stroke="#FF0000" stroke-linecap="round"/>
<path d="M7.99959 2.90702C7.99959 3.30548 7.87478 3.69394 7.64269 4.01782C7.41059 4.34171 7.08288 4.58476 6.70556 4.71284C6.32825 4.84092 5.92029 4.8476 5.53899 4.73193C5.15769 4.61626 4.82219 4.38407 4.57963 4.06795C4.33706 3.75183 4.19961 3.36767 4.18657 2.96942C4.17353 2.57117 4.28557 2.17885 4.50694 1.84754C4.72831 1.51623 5.0479 1.26259 5.42082 1.12223C5.79374 0.981871 6.20126 0.961851 6.58614 1.06498" stroke="#FF0000" stroke-linecap="round"/>
</svg>
