<svg width="10" height="10" viewBox="0 0 10 10" fill="none" xmlns="http://www.w3.org/2000/svg">
<path d="M1 3.41016H9V5.82108H7.66667V9.19638H2.33333V5.82108H1V3.41016Z" stroke="#FF0000"/>
<path d="M1.89062 5.82422H8.11285" stroke="#FF0000" stroke-linecap="round"/>
<path d="M5.00195 2.92969L5.00195 9.1981" stroke="#FF0000" stroke-linecap="round"/>
<path d="M5.00174 2.92874L4.59006 2.4821C4.13052 1.98355 3.55776 1.6029 2.92014 1.37231V1.37231C2.41932 1.1912 1.89062 1.56221 1.89062 2.09477V2.29234C1.89062 2.67428 2.12992 3.01528 2.4891 3.14517L3.22396 3.41093" stroke="#FF0000" stroke-linecap="round"/>
<path d="M5.00217 2.92874L5.41385 2.4821C5.87338 1.98355 6.44615 1.6029 7.08377 1.37231V1.37231C7.58459 1.1912 8.11328 1.56221 8.11328 2.09477V2.29234C8.11328 2.67428 7.87398 3.01528 7.51481 3.14517L6.77995 3.41093" stroke="#FF0000" stroke-linecap="round"/>
</svg>
