<svg width="9" height="9" viewBox="0 0 9 9" fill="none" xmlns="http://www.w3.org/2000/svg">
<mask id="path-1-inside-1_436_9035" fill="white">
<path d="M4.5 7.56973e-07C3.60998 7.95877e-07 2.73995 0.263922 1.99993 0.758387C1.25991 1.25285 0.683136 1.95566 0.342542 2.77792C0.00194751 3.60019 -0.0871674 4.50499 0.0864661 5.37791C0.2601 6.25082 0.688683 7.05264 1.31802 7.68198C1.94736 8.31132 2.74918 8.7399 3.62209 8.91353C4.49501 9.08717 5.39981 8.99805 6.22207 8.65746C7.04434 8.31686 7.74715 7.74009 8.24161 7.00007C8.73608 6.26004 9 5.39002 9 4.5L4.5 4.5L4.5 7.56973e-07Z"/>
</mask>
<path d="M4.5 7.56973e-07C3.60998 7.95877e-07 2.73995 0.263922 1.99993 0.758387C1.25991 1.25285 0.683136 1.95566 0.342542 2.77792C0.00194751 3.60019 -0.0871674 4.50499 0.0864661 5.37791C0.2601 6.25082 0.688683 7.05264 1.31802 7.68198C1.94736 8.31132 2.74918 8.7399 3.62209 8.91353C4.49501 9.08717 5.39981 8.99805 6.22207 8.65746C7.04434 8.31686 7.74715 7.74009 8.24161 7.00007C8.73608 6.26004 9 5.39002 9 4.5L4.5 4.5L4.5 7.56973e-07Z" stroke="#FF0000" stroke-width="2" mask="url(#path-1-inside-1_436_9035)"/>
<path d="M4.5 6.75L4.5 9" stroke="#FF0000"/>
<path d="M2.25195 4.50391H0.00195312" stroke="#FF0000"/>
<circle cx="4.5" cy="4.50391" r="4" stroke="#FF0000"/>
</svg>
